<svg width="24" height="24" viewBox="0 0 24 24" fill="none" xmlns="http://www.w3.org/2000/svg">
<g id="Icon/Calendar">
<path id="Vector" d="M9.44186 2.69767C9.44186 2.31236 9.1295 2 8.74419 2C8.35887 2 8.04651 2.31236 8.04651 2.69767V3.86047H3.62791C2.72884 3.86047 2 4.5893 2 5.48837V20.3721C2 21.2712 2.72884 22 3.62791 22H20.3721C21.2712 22 22 21.2712 22 20.3721V5.48837C22 4.5893 21.2712 3.86047 20.3721 3.86047H15.9535V2.69767C15.9535 2.31236 15.6411 2 15.2558 2C14.8705 2 14.5581 2.31236 14.5581 2.69767V3.86047H9.44186V2.69767ZM15.9535 20.6047H14.5581V16.4186H9.44186V20.6047H8.04651V16.4186H3.39535V15.0233H8.04651V10.8372H3.39535V9.44186H20.6047V10.8372H15.9535V15.0233H20.6047V16.4186H15.9535V20.6047ZM14.5581 10.8372V15.0233H9.44186V10.8372H14.5581Z" fill="#6C737F"/>
</g>
</svg>
