<svg width="25" height="24" viewBox="0 0 25 24" fill="none" xmlns="http://www.w3.org/2000/svg">
<g id="Icon/Outlined/Calendar">
<g id="Vector">
<path fill-rule="evenodd" clip-rule="evenodd" d="M3.63425 5.25581C3.50582 5.25581 3.4017 5.35993 3.4017 5.48837V20.3721C3.4017 20.5005 3.50582 20.6047 3.63425 20.6047H20.3784C20.5069 20.6047 20.611 20.5005 20.611 20.3721V5.48837C20.611 5.35993 20.5069 5.25581 20.3784 5.25581H3.63425ZM2.00635 5.48837C2.00635 4.5893 2.73519 3.86047 3.63425 3.86047H20.3784C21.2775 3.86047 22.0063 4.5893 22.0063 5.48837V20.3721C22.0063 21.2712 21.2775 22 20.3784 22H3.63425C2.73519 22 2.00635 21.2712 2.00635 20.3721V5.48837Z" fill="#6C737F"/>
<path fill-rule="evenodd" clip-rule="evenodd" d="M2.00635 10.1395C2.00635 9.75422 2.31871 9.44186 2.70402 9.44186H21.3087C21.694 9.44186 22.0063 9.75422 22.0063 10.1395C22.0063 10.5248 21.694 10.8372 21.3087 10.8372H2.70402C2.31871 10.8372 2.00635 10.5248 2.00635 10.1395Z" fill="#6C737F"/>
<path fill-rule="evenodd" clip-rule="evenodd" d="M2.00635 15.7209C2.00635 15.3356 2.31871 15.0233 2.70402 15.0233H21.3087C21.694 15.0233 22.0063 15.3356 22.0063 15.7209C22.0063 16.1062 21.694 16.4186 21.3087 16.4186H2.70402C2.31871 16.4186 2.00635 16.1062 2.00635 15.7209Z" fill="#6C737F"/>
<path fill-rule="evenodd" clip-rule="evenodd" d="M8.75053 2C9.13585 2 9.44821 2.31236 9.44821 2.69767V6.4186C9.44821 6.80392 9.13585 7.11628 8.75053 7.11628C8.36522 7.11628 8.05286 6.80392 8.05286 6.4186V2.69767C8.05286 2.31236 8.36522 2 8.75053 2Z" fill="#6C737F"/>
<path fill-rule="evenodd" clip-rule="evenodd" d="M15.2622 2C15.6475 2 15.9598 2.31236 15.9598 2.69767V6.4186C15.9598 6.80392 15.6475 7.11628 15.2622 7.11628C14.8768 7.11628 14.5645 6.80392 14.5645 6.4186V2.69767C14.5645 2.31236 14.8768 2 15.2622 2Z" fill="#6C737F"/>
<path fill-rule="evenodd" clip-rule="evenodd" d="M8.75053 9.44186C9.13585 9.44186 9.44821 9.75422 9.44821 10.1395V21.3023C9.44821 21.6876 9.13585 22 8.75053 22C8.36522 22 8.05286 21.6876 8.05286 21.3023V10.1395C8.05286 9.75422 8.36522 9.44186 8.75053 9.44186Z" fill="#6C737F"/>
<path fill-rule="evenodd" clip-rule="evenodd" d="M15.2622 9.44186C15.6475 9.44186 15.9598 9.75422 15.9598 10.1395V21.3023C15.9598 21.6876 15.6475 22 15.2622 22C14.8768 22 14.5645 21.6876 14.5645 21.3023V10.1395C14.5645 9.75422 14.8768 9.44186 15.2622 9.44186Z" fill="#6C737F"/>
<path fill-rule="evenodd" clip-rule="evenodd" d="M21.3087 6.18605C21.694 6.18605 22.0063 6.49841 22.0063 6.88372V18.9767C22.0063 19.3621 21.694 19.6744 21.3087 19.6744C20.9234 19.6744 20.611 19.3621 20.611 18.9767V6.88372C20.611 6.49841 20.9234 6.18605 21.3087 6.18605Z" fill="#6C737F"/>
<path fill-rule="evenodd" clip-rule="evenodd" d="M2.70402 6.18605C3.08934 6.18605 3.4017 6.49841 3.4017 6.88372V18.9767C3.4017 19.3621 3.08934 19.6744 2.70402 19.6744C2.31871 19.6744 2.00635 19.3621 2.00635 18.9767V6.88372C2.00635 6.49841 2.31871 6.18605 2.70402 6.18605Z" fill="#6C737F"/>
<path fill-rule="evenodd" clip-rule="evenodd" d="M6.65751 21.3023C6.65751 20.917 6.96987 20.6047 7.35519 20.6047H16.6575C17.0428 20.6047 17.3552 20.917 17.3552 21.3023C17.3552 21.6876 17.0428 22 16.6575 22H7.35519C6.96987 22 6.65751 21.6876 6.65751 21.3023Z" fill="#6C737F"/>
</g>
</g>
</svg>
