<svg width="24" height="24" viewBox="0 0 24 24" fill="none" xmlns="http://www.w3.org/2000/svg">
<g id="Icon/Outlined/Close">
<path id="Icon (Stroke)" fill-rule="evenodd" clip-rule="evenodd" d="M3.38128 3.38128C3.72299 3.03957 4.27701 3.03957 4.61872 3.38128L12 10.7626L19.3813 3.38128C19.723 3.03957 20.277 3.03957 20.6187 3.38128C20.9604 3.72299 20.9604 4.27701 20.6187 4.61872L13.2374 12L20.6187 19.3813C20.9604 19.723 20.9604 20.277 20.6187 20.6187C20.277 20.9604 19.723 20.9604 19.3813 20.6187L12 13.2374L4.61872 20.6187C4.27701 20.9604 3.72299 20.9604 3.38128 20.6187C3.03957 20.277 3.03957 19.723 3.38128 19.3813L10.7626 12L3.38128 4.61872C3.03957 4.27701 3.03957 3.72299 3.38128 3.38128Z" fill="#6C737F"/>
</g>
</svg>
