<svg width="24" height="24" viewBox="0 0 24 24" fill="none" xmlns="http://www.w3.org/2000/svg">
<g id="Icon/Upload">
<g id="Vector">
<path d="M6.97842 10.1367C7.06813 10.5051 6.83507 10.8748 6.45786 10.9624C4.70627 11.3693 3.40409 12.9084 3.40409 14.7429C3.40409 16.8889 5.18521 18.6286 7.38233 18.6286C7.7604 18.6286 8.12498 18.5773 8.46975 18.4818C8.84278 18.3785 9.23091 18.5902 9.33665 18.9545C9.4424 19.3189 9.22572 19.698 8.85269 19.8013C8.3845 19.9309 7.89109 20 7.38233 20C4.40975 20 2 17.6463 2 14.7429C2 12.2588 3.76318 10.1787 6.133 9.62821C6.51021 9.54059 6.88872 9.76823 6.97842 10.1367Z" fill="#6C737F"/>
<path d="M17.0216 10.1367C17.1113 9.76823 17.4898 9.54059 17.867 9.6282C20.2369 10.1787 22 12.2588 22 14.7429C22 17.6463 19.5903 20 16.6177 20C16.1089 20 15.6155 19.9309 15.1473 19.8013C14.7743 19.698 14.5576 19.3189 14.6633 18.9545C14.7691 18.5902 15.1572 18.3785 15.5302 18.4818C15.875 18.5773 16.2396 18.6286 16.6177 18.6286C18.8148 18.6286 20.5959 16.8889 20.5959 14.7429C20.5959 12.9084 19.2938 11.3693 17.5421 10.9624C17.1649 10.8748 16.9319 10.5051 17.0216 10.1367Z" fill="#6C737F"/>
<path d="M5.74423 10.1714C5.74423 6.76305 8.57308 4 12.0626 4C15.5522 4 18.381 6.76305 18.381 10.1714C18.381 10.5501 18.0667 10.8571 17.679 10.8571C17.2912 10.8571 16.9769 10.5501 16.9769 10.1714C16.9769 7.52047 14.7767 5.37143 12.0626 5.37143C9.34854 5.37143 7.14832 7.52047 7.14832 10.1714C7.14832 10.5501 6.834 10.8571 6.44628 10.8571C6.05855 10.8571 5.74423 10.5501 5.74423 10.1714Z" fill="#6C737F"/>
<path d="M11.5653 10.1096C11.8386 9.84177 12.2823 9.84057 12.5571 10.1069L15.895 13.3418C16.1702 13.6085 16.172 14.0427 15.8989 14.3115C15.6258 14.5804 15.1813 14.5821 14.906 14.3153L12.0653 11.5623L9.31427 14.2582C9.04055 14.5265 8.59604 14.5272 8.32143 14.2598C8.04681 13.9925 8.04608 13.5583 8.31979 13.2901L11.5653 10.1096Z" fill="#6C737F"/>
<path d="M12.0626 11.5254C12.4504 11.5254 12.7647 11.8324 12.7647 12.2111V18.4C12.7647 18.7787 12.4504 19.0857 12.0626 19.0857C11.6749 19.0857 11.3606 18.7787 11.3606 18.4V12.2111C11.3606 11.8324 11.6749 11.5254 12.0626 11.5254Z" fill="#6C737F"/>
</g>
</g>
</svg>
