<svg width="24" height="24" viewBox="0 0 24 24" fill="none" xmlns="http://www.w3.org/2000/svg">
<g id="Active=No">
<g id="Vector">
<path fill-rule="evenodd" clip-rule="evenodd" d="M4 3.75C3.86193 3.75 3.75 3.86193 3.75 4V9C3.75 9.13807 3.86193 9.25 4 9.25H9C9.13807 9.25 9.25 9.13807 9.25 9V4C9.25 3.86193 9.13807 3.75 9 3.75H4ZM2.25 4C2.25 3.0335 3.0335 2.25 4 2.25H9C9.9665 2.25 10.75 3.0335 10.75 4V9C10.75 9.9665 9.9665 10.75 9 10.75H4C3.0335 10.75 2.25 9.9665 2.25 9V4Z" fill="#6C737F"/>
<path fill-rule="evenodd" clip-rule="evenodd" d="M4 14.75C3.86193 14.75 3.75 14.8619 3.75 15V20C3.75 20.1381 3.86193 20.25 4 20.25H9C9.13807 20.25 9.25 20.1381 9.25 20V15C9.25 14.8619 9.13807 14.75 9 14.75H4ZM2.25 15C2.25 14.0335 3.0335 13.25 4 13.25H9C9.9665 13.25 10.75 14.0335 10.75 15V20C10.75 20.9665 9.9665 21.75 9 21.75H4C3.0335 21.75 2.25 20.9665 2.25 20V15Z" fill="#6C737F"/>
<path fill-rule="evenodd" clip-rule="evenodd" d="M13.25 6.5C13.25 4.15279 15.1528 2.25 17.5 2.25C19.8472 2.25 21.75 4.15279 21.75 6.5C21.75 8.84721 19.8472 10.75 17.5 10.75C15.1528 10.75 13.25 8.84721 13.25 6.5ZM17.5 3.75C15.9812 3.75 14.75 4.98122 14.75 6.5C14.75 8.01879 15.9812 9.25 17.5 9.25C19.0188 9.25 20.25 8.01879 20.25 6.5C20.25 4.98122 19.0188 3.75 17.5 3.75Z" fill="#6C737F"/>
<path fill-rule="evenodd" clip-rule="evenodd" d="M15 14.75C14.8619 14.75 14.75 14.8619 14.75 15V20C14.75 20.1381 14.8619 20.25 15 20.25H20C20.1381 20.25 20.25 20.1381 20.25 20V15C20.25 14.8619 20.1381 14.75 20 14.75H15ZM13.25 15C13.25 14.0335 14.0335 13.25 15 13.25H20C20.9665 13.25 21.75 14.0335 21.75 15V20C21.75 20.9665 20.9665 21.75 20 21.75H15C14.0335 21.75 13.25 20.9665 13.25 20V15Z" fill="#6C737F"/>
</g>
</g>
</svg>
