<svg width="22" height="22" viewBox="0 0 22 22" fill="none" xmlns="http://www.w3.org/2000/svg">
<path d="M3.3986 3.3986C5.34317 1.45406 8.0317 0.25 11 0.25C13.9683 0.25 16.6568 1.45406 18.6014 3.3986C20.5459 5.34317 21.75 8.0317 21.75 11C21.75 13.9683 20.5459 16.6568 18.6014 18.6014C16.6568 20.5459 13.9683 21.75 11 21.75C8.0317 21.75 5.34317 20.5459 3.3986 18.6014C1.45406 16.6568 0.25 13.9683 0.25 11C0.25 8.0317 1.45407 5.34316 3.3986 3.3986ZM12.25 5.75C12.25 5.05965 11.6903 4.5 11 4.5C10.3097 4.5 9.75 5.05965 9.75 5.75C9.75 6.44035 10.3097 7 11 7C11.6903 7 12.25 6.44035 12.25 5.75ZM9.5 9C9.5 9.41421 9.83579 9.75 10.25 9.75H10.5V15.25H9.5C9.08579 15.25 8.75 15.5858 8.75 16C8.75 16.4142 9.08579 16.75 9.5 16.75H13C13.4142 16.75 13.75 16.4142 13.75 16C13.75 15.5858 13.4142 15.25 13 15.25H12V9C12 8.58579 11.6642 8.25 11.25 8.25H10.25C9.83579 8.25 9.5 8.58579 9.5 9Z" fill="#6C737F"/>
</svg>
