<svg width="24" height="24" viewBox="0 0 24 24" fill="none" xmlns="http://www.w3.org/2000/svg">
<g clip-path="url(#clip0_1718_60013)">
<rect x="2" y="7" width="12" height="7" fill="#B2DDFF"/>
<path d="M1.64453 15.1797H14.5352C14.7061 15.1797 14.87 15.1118 14.9909 14.9909C15.1118 14.87 15.1797 14.7061 15.1797 14.5352V6.80078C15.1797 6.62984 15.1118 6.4659 14.9909 6.34503C14.87 6.22416 14.7061 6.15625 14.5352 6.15625H12.1521L8.73438 3.87891V1.64453C8.73438 1.47359 8.66647 1.30965 8.5456 1.18878C8.42472 1.06791 8.26078 1 8.08984 1C7.9189 1 7.75496 1.06791 7.63409 1.18878C7.51322 1.30965 7.44531 1.47359 7.44531 1.64453V3.87891L4.02758 6.15625H1.64453C1.47359 6.15625 1.30965 6.22416 1.18878 6.34503C1.06791 6.4659 1 6.62984 1 6.80078L1 14.5352C1 14.7061 1.06791 14.87 1.18878 14.9909C1.30965 15.1118 1.47359 15.1797 1.64453 15.1797ZM8.08984 4.99609L9.82836 6.15625H6.35133L8.08984 4.99609ZM2.28906 7.44531H13.8906V13.8906H2.28906V7.44531Z" fill="#2E90FA"/>
<path d="M21.7109 15.2901V13.2461C21.7104 12.7334 21.5065 12.242 21.144 11.8795C20.7815 11.517 20.29 11.3131 19.7773 11.3125H17.8438V9.37891C17.8438 9.20797 17.7758 9.04403 17.655 8.92315C17.5341 8.80228 17.3702 8.73438 17.1992 8.73438C17.0283 8.73438 16.8643 8.80228 16.7435 8.92315C16.6226 9.04403 16.5547 9.20797 16.5547 9.37891V16.4688H1.64453C1.47359 16.4688 1.30965 16.5367 1.18878 16.6575C1.06791 16.7784 1 16.9423 1 17.1133L1 21.0664C1 21.2373 1.06791 21.4013 1.18878 21.5222C1.30965 21.643 1.47359 21.7109 1.64453 21.7109H3.68898C3.79499 22.0101 3.97303 22.2787 4.20739 22.4928C4.44174 22.7069 4.72521 22.86 5.03275 22.9386C5.34029 23.0172 5.66246 23.0189 5.97081 22.9435C6.27916 22.8681 6.5642 22.7179 6.80078 22.5063C7.03736 22.7179 7.3224 22.8681 7.63075 22.9435C7.9391 23.0189 8.26127 23.0172 8.56881 22.9386C8.87636 22.86 9.15982 22.7069 9.39417 22.4928C9.62853 22.2787 9.80657 22.0101 9.91258 21.7109H16.6655C16.7989 22.0877 17.0458 22.4139 17.3723 22.6446C17.6987 22.8753 18.0886 22.9992 18.4883 22.9992C18.888 22.9992 19.2779 22.8753 19.6043 22.6446C19.9307 22.4139 20.1776 22.0877 20.311 21.7109H22.3555C22.5264 21.7109 22.6903 21.643 22.8112 21.5222C22.9321 21.4013 23 21.2373 23 21.0664V17.1133C22.9995 16.7135 22.8754 16.3237 22.6446 15.9973C22.4138 15.6709 22.0877 15.4238 21.7109 15.2901ZM20.4219 13.2461V15.1797H17.8438V12.6016H19.7773C19.9483 12.6016 20.1122 12.6695 20.2331 12.7903C20.354 12.9112 20.4219 13.0752 20.4219 13.2461ZM5.51172 21.7109C5.38424 21.7109 5.25963 21.6731 5.15364 21.6023C5.04764 21.5315 4.96503 21.4308 4.91625 21.3131C4.86747 21.1953 4.8547 21.0657 4.87957 20.9407C4.90444 20.8156 4.96583 20.7008 5.05597 20.6107C5.14611 20.5205 5.26095 20.4591 5.38598 20.4343C5.511 20.4094 5.6406 20.4222 5.75837 20.4709C5.87614 20.5197 5.9768 20.6023 6.04763 20.7083C6.11845 20.8143 6.15625 20.9389 6.15625 21.0664C6.15625 21.2373 6.08834 21.4013 5.96747 21.5222C5.8466 21.643 5.68266 21.7109 5.51172 21.7109ZM8.08984 21.7109C7.96237 21.7109 7.83775 21.6731 7.73176 21.6023C7.62577 21.5315 7.54316 21.4308 7.49437 21.3131C7.44559 21.1953 7.43283 21.0657 7.4577 20.9407C7.48257 20.8156 7.54395 20.7008 7.63409 20.6107C7.72423 20.5205 7.83908 20.4591 7.9641 20.4343C8.08913 20.4094 8.21872 20.4222 8.33649 20.4709C8.45427 20.5197 8.55493 20.6023 8.62575 20.7083C8.69657 20.8143 8.73438 20.9389 8.73438 21.0664C8.73438 21.2373 8.66647 21.4013 8.5456 21.5222C8.42472 21.643 8.26078 21.7109 8.08984 21.7109ZM18.4883 21.7109C18.3608 21.7109 18.2362 21.6731 18.1302 21.6023C18.0242 21.5315 17.9416 21.4308 17.8928 21.3131C17.844 21.1953 17.8313 21.0657 17.8561 20.9407C17.881 20.8156 17.9424 20.7008 18.0325 20.6107C18.1227 20.5205 18.2375 20.4591 18.3625 20.4343C18.4876 20.4094 18.6172 20.4222 18.7349 20.4709C18.8527 20.5197 18.9534 20.6023 19.0242 20.7083C19.095 20.8143 19.1328 20.9389 19.1328 21.0664C19.1328 21.2373 19.0649 21.4013 18.944 21.5222C18.8232 21.643 18.6592 21.7109 18.4883 21.7109Z" fill="#2E90FA"/>
<path d="M5.22266 8.73438C5.05172 8.73438 4.88778 8.80228 4.7669 8.92315C4.64603 9.04403 4.57812 9.20797 4.57812 9.37891V11.957C4.57812 12.128 4.64603 12.2919 4.7669 12.4128C4.88778 12.5337 5.05172 12.6016 5.22266 12.6016C5.3936 12.6016 5.55754 12.5337 5.67841 12.4128C5.79928 12.2919 5.86719 12.128 5.86719 11.957V9.37891C5.86719 9.20797 5.79928 9.04403 5.67841 8.92315C5.55754 8.80228 5.3936 8.73438 5.22266 8.73438Z" fill="#2E90FA"/>
<path d="M7.80078 8.73438C7.62984 8.73438 7.4659 8.80228 7.34503 8.92315C7.22416 9.04403 7.15625 9.20797 7.15625 9.37891V11.957C7.15625 12.128 7.22416 12.2919 7.34503 12.4128C7.4659 12.5337 7.62984 12.6016 7.80078 12.6016C7.97172 12.6016 8.13566 12.5337 8.25653 12.4128C8.37741 12.2919 8.44531 12.128 8.44531 11.957V9.37891C8.44531 9.20797 8.37741 9.04403 8.25653 8.92315C8.13566 8.80228 7.97172 8.73438 7.80078 8.73438Z" fill="#2E90FA"/>
<path d="M10.3789 8.73438C10.208 8.73438 10.044 8.80228 9.92315 8.92315C9.80228 9.04403 9.73438 9.20797 9.73438 9.37891V11.957C9.73438 12.128 9.80228 12.2919 9.92315 12.4128C10.044 12.5337 10.208 12.6016 10.3789 12.6016C10.5498 12.6016 10.7138 12.5337 10.8347 12.4128C10.9555 12.2919 11.0234 12.128 11.0234 11.957V9.37891C11.0234 9.20797 10.9555 9.04403 10.8347 8.92315C10.7138 8.80228 10.5498 8.73438 10.3789 8.73438Z" fill="#2E90FA"/>
</g>
<defs>
<clipPath id="clip0_1718_60013">
<rect width="22" height="22" fill="white" transform="translate(1 1)"/>
</clipPath>
</defs>
</svg>
