<svg width="24" height="24" viewBox="0 0 24 24" fill="none" xmlns="http://www.w3.org/2000/svg">
<path d="M7 2C6.3125 2 5.75 2.5625 5.75 3.25V20.75C5.75 21.4375 6.3125 22 7 22H19.5C20.1875 22 20.75 21.4375 20.75 20.75V7L15.75 2H7Z" fill="#E5E7EB"/>
<path d="M17 7H20.75L15.75 2V5.75C15.75 6.4375 16.3125 7 17 7Z" fill="#9DA4AE"/>
<path d="M20.75 10.75L17 7H20.75V10.75Z" fill="#D2D6DB"/>
<path d="M18.25 18.25C18.25 18.5938 17.9688 18.875 17.625 18.875H3.875C3.53125 18.875 3.25 18.5938 3.25 18.25V12C3.25 11.6562 3.53125 11.375 3.875 11.375H17.625C17.9688 11.375 18.25 11.6562 18.25 12V18.25Z" fill="#F04438"/>
<path d="M5.97412 13.8411C5.97412 13.6761 6.10412 13.4961 6.3135 13.4961H7.46787C8.11787 13.4961 8.70287 13.9311 8.70287 14.7648C8.70287 15.5548 8.11787 15.9948 7.46787 15.9948H6.6335V16.6548C6.6335 16.8748 6.4935 16.9992 6.3135 16.9992C6.1485 16.9992 5.97412 16.8748 5.97412 16.6548V13.8411ZM6.6335 14.1255V15.3705H7.46787C7.80287 15.3705 8.06787 15.0748 8.06787 14.7648C8.06787 14.4155 7.80287 14.1255 7.46787 14.1255H6.6335ZM9.68162 16.9992C9.51662 16.9992 9.33662 16.9092 9.33662 16.6898V13.8511C9.33662 13.6717 9.51662 13.5411 9.68162 13.5411H10.826C13.1097 13.5411 13.0597 16.9992 10.871 16.9992H9.68162ZM9.99662 14.1511V16.3898H10.826C12.1754 16.3898 12.2354 14.1511 10.826 14.1511H9.99662ZM13.8697 14.1911V14.9855H15.1441C15.3241 14.9855 15.5041 15.1655 15.5041 15.3398C15.5041 15.5048 15.3241 15.6398 15.1441 15.6398H13.8697V16.6892C13.8697 16.8642 13.7454 16.9986 13.5704 16.9986C13.3504 16.9986 13.216 16.8642 13.216 16.6892V13.8505C13.216 13.6711 13.351 13.5405 13.5704 13.5405H15.3247C15.5447 13.5405 15.6747 13.6711 15.6747 13.8505C15.6747 14.0105 15.5447 14.1905 15.3247 14.1905H13.8697V14.1911Z" fill="white"/>
<path d="M17.625 18.875H5.75V19.5H17.625C17.9688 19.5 18.25 19.2188 18.25 18.875V18.25C18.25 18.5938 17.9688 18.875 17.625 18.875Z" fill="#D2D6DB"/>
</svg>
