<svg width="25" height="24" viewBox="0 0 25 24" fill="none" xmlns="http://www.w3.org/2000/svg">
<g id="Hardware/printer-two">
<g id="Vector">
<path fill-rule="evenodd" clip-rule="evenodd" d="M4.25635 4C4.25635 3.03351 5.03983 2.25 6.00635 2.25H18.0063C18.9729 2.25 19.7563 3.03351 19.7563 4V10C19.7563 10.4142 19.4206 10.75 19.0063 10.75C18.5921 10.75 18.2563 10.4142 18.2563 10V4C18.2563 3.86192 18.1444 3.75 18.0063 3.75H6.00635C5.86827 3.75 5.75635 3.86192 5.75635 4V10C5.75635 10.4142 5.42056 10.75 5.00635 10.75C4.59213 10.75 4.25635 10.4142 4.25635 10V4Z" fill="#6C737F"/>
<path fill-rule="evenodd" clip-rule="evenodd" d="M4.00635 10.75C3.86828 10.75 3.75635 10.8619 3.75635 11V20C3.75635 20.1381 3.86828 20.25 4.00635 20.25H20.0063C20.1444 20.25 20.2563 20.1381 20.2563 20V11C20.2563 10.8619 20.1444 10.75 20.0063 10.75H4.00635ZM2.25635 11C2.25635 10.0335 3.03985 9.25 4.00635 9.25H20.0063C20.9728 9.25 21.7563 10.0335 21.7563 11V20C21.7563 20.9665 20.9728 21.75 20.0063 21.75H4.00635C3.03985 21.75 2.25635 20.9665 2.25635 20V11Z" fill="#6C737F"/>
<path fill-rule="evenodd" clip-rule="evenodd" d="M9.25635 17C9.25635 16.5858 9.59213 16.25 10.0063 16.25H17.5063C17.9206 16.25 18.2563 16.5858 18.2563 17V21C18.2563 21.4142 17.9206 21.75 17.5063 21.75H10.0063C9.59213 21.75 9.25635 21.4142 9.25635 21V17ZM10.7563 17.75V20.25H16.7563V17.75H10.7563Z" fill="#6C737F"/>
<path fill-rule="evenodd" clip-rule="evenodd" d="M5.25635 13C5.25635 12.5858 5.59213 12.25 6.00635 12.25H7.50635C7.92056 12.25 8.25635 12.5858 8.25635 13C8.25635 13.4142 7.92056 13.75 7.50635 13.75H6.00635C5.59213 13.75 5.25635 13.4142 5.25635 13Z" fill="#6C737F"/>
</g>
</g>
</svg>
