<svg width="24" height="24" viewBox="0 0 24 24" fill="none" xmlns="http://www.w3.org/2000/svg">
<g id="Active=No">
<g id="Vector">
<path fill-rule="evenodd" clip-rule="evenodd" d="M11.2721 10.6538C11.7303 10.4246 12.2698 10.4246 12.7281 10.6538L19.9426 14.261C20.6821 14.6308 21.0271 15.4963 20.7445 16.2734L19.1674 20.6105L17.856 20.1337L19.4331 15.7966C19.4735 15.6856 19.4243 15.5619 19.3186 15.509L12.1041 11.9018C12.0386 11.8691 11.9615 11.8691 11.8961 11.9018L4.68157 15.509C4.57588 15.5619 4.52661 15.6856 4.56696 15.7966L6.1441 20.1337L4.83276 20.6105L3.25563 16.2734C2.97304 15.4963 3.31794 14.6309 4.05745 14.261L11.2721 10.6538Z" fill="#6C737F"/>
<path fill-rule="evenodd" clip-rule="evenodd" d="M5.25581 8.27907C5.25581 7.37999 5.98464 6.65116 6.88372 6.65116H17.1163C18.0154 6.65116 18.7442 7.37999 18.7442 8.27907V13.8605C18.7442 14.0984 18.6229 14.3199 18.4225 14.4481C18.2221 14.5764 17.9702 14.5936 17.7541 14.4939L12.0975 11.8832C12.0357 11.8546 11.9644 11.8546 11.9026 11.8831L6.24586 14.4939C6.02983 14.5936 5.77789 14.5764 5.57747 14.4481C5.37706 14.3199 5.25581 14.0984 5.25581 13.8605V8.27907ZM6.88372 8.04651C6.75527 8.04651 6.65116 8.15062 6.65116 8.27907V12.7701L11.3178 10.6162C11.7507 10.4165 12.2493 10.4165 12.6821 10.6162L17.3488 12.7701V8.27907C17.3488 8.15062 17.2447 8.04651 17.1163 8.04651H6.88372Z" fill="#6C737F"/>
<path fill-rule="evenodd" clip-rule="evenodd" d="M8.97674 3.62791C8.97674 2.72885 9.70556 2 10.6047 2H13.3953C14.2944 2 15.0233 2.72885 15.0233 3.62791V7.34884C15.0233 7.73415 14.7109 8.04651 14.3256 8.04651C13.9403 8.04651 13.6279 7.73415 13.6279 7.34884V3.62791C13.6279 3.49946 13.5238 3.39535 13.3953 3.39535H10.6047C10.4762 3.39535 10.3721 3.49946 10.3721 3.62791V7.34884C10.3721 7.73415 10.0597 8.04651 9.67442 8.04651C9.2891 8.04651 8.97674 7.73415 8.97674 7.34884V3.62791Z" fill="#6C737F"/>
<path fill-rule="evenodd" clip-rule="evenodd" d="M12 15.0233C12.3853 15.0233 12.6977 15.3356 12.6977 15.7209V19.4419C12.6977 19.8272 12.3853 20.1395 12 20.1395C11.6147 20.1395 11.3023 19.8272 11.3023 19.4419V15.7209C11.3023 15.3356 11.6147 15.0233 12 15.0233Z" fill="#6C737F"/>
<path fill-rule="evenodd" clip-rule="evenodd" d="M4.84614 21.443C4.36865 21.7158 3.78403 22 2.69767 22C2.31236 22 2 21.6876 2 21.3023C2 20.917 2.31236 20.6047 2.69767 20.6047C3.47178 20.6047 3.81739 20.4237 4.15386 20.2315C4.18283 20.2149 4.21229 20.1978 4.24235 20.1804C4.62926 19.9563 5.11585 19.6744 5.95349 19.6744C6.86087 19.6744 7.35225 20.001 7.73584 20.2567L7.73878 20.2587C8.05122 20.467 8.25774 20.6047 8.74419 20.6047C9.2389 20.6047 9.50797 20.461 9.92478 20.2386C9.93528 20.233 9.94587 20.2273 9.95657 20.2216C10.4318 19.9681 11.0175 19.6744 12 19.6744C12.9825 19.6744 13.5682 19.9681 14.0434 20.2216C14.0541 20.2273 14.0647 20.233 14.0752 20.2386C14.492 20.461 14.7611 20.6047 15.2558 20.6047C15.7423 20.6047 15.9488 20.467 16.2612 20.2587L16.2642 20.2567C16.6477 20.001 17.1391 19.6744 18.0465 19.6744C18.8841 19.6744 19.3707 19.9563 19.7577 20.1804C19.7877 20.1978 19.8172 20.2149 19.8461 20.2315C20.1826 20.4237 20.5282 20.6047 21.3023 20.6047C21.6876 20.6047 22 20.917 22 21.3023C22 21.6876 21.6876 22 21.3023 22C20.216 22 19.6313 21.7158 19.1539 21.443C19.1252 21.4266 19.0976 21.4107 19.0709 21.3953C18.7123 21.189 18.5049 21.0698 18.0465 21.0698C17.5601 21.0698 17.3535 21.2075 17.0411 21.4158L17.0382 21.4177C16.6546 21.6734 16.1632 22 15.2558 22C14.4081 22 13.874 21.7138 13.4472 21.4851C13.4269 21.4742 13.4067 21.4634 13.3868 21.4528C12.99 21.2412 12.6454 21.0698 12 21.0698C11.3546 21.0698 11.01 21.2412 10.6132 21.4528C10.5933 21.4634 10.5731 21.4742 10.5528 21.4851C10.126 21.7138 9.59188 22 8.74419 22C7.8368 22 7.34542 21.6734 6.96184 21.4177L6.9589 21.4158C6.64646 21.2075 6.43993 21.0698 5.95349 21.0698C5.49507 21.0698 5.28773 21.189 4.92915 21.3953C4.90238 21.4107 4.87477 21.4266 4.84614 21.443Z" fill="#6C737F"/>
</g>
</g>
</svg>
