<svg width="24" height="24" viewBox="0 0 24 24" fill="none" xmlns="http://www.w3.org/2000/svg">
<path d="M12.7552 2.6748H11.2459C10.042 2.6748 9.0625 3.65427 9.0625 4.85819V10.5954C9.0625 11.7993 10.042 12.7788 11.2459 12.7788H12.7552C13.9592 12.7788 14.9386 11.7993 14.9386 10.5954V4.85815C14.9386 3.65427 13.9592 2.6748 12.7552 2.6748Z" fill="#2E90FA"/>
<path d="M18.3869 6.37012H5.61316C5.17338 6.37012 4.81689 6.72661 4.81689 7.16638V14.7895C4.81689 16.1769 5.94156 17.3015 7.32888 17.3015H16.6713C18.0586 17.3015 19.1833 16.1769 19.1833 14.7895V7.16638C19.1832 6.72665 18.8267 6.37012 18.3869 6.37012Z" fill="#84CAFF"/>
<path d="M21.5186 13.1473C21.4202 12.9565 21.2827 12.7887 21.1152 12.6545C20.9476 12.5203 20.7538 12.4229 20.5461 12.3685L12.1483 10.1743C12.0512 10.1489 11.9492 10.1489 11.8521 10.1743L3.45429 12.3685C3.03487 12.4781 2.68037 12.7619 2.48177 13.1473C2.28318 13.5326 2.25755 13.9859 2.41162 14.3912L4.57337 20.0781C4.68837 20.3806 5.02677 20.5326 5.32927 20.4176C5.56318 20.3287 18.4373 20.3287 18.6712 20.4176C18.7397 20.4436 18.8101 20.456 18.8793 20.456C19.1156 20.456 19.3382 20.312 19.4271 20.0781L21.5889 14.3912C21.665 14.1905 21.6981 13.976 21.686 13.7618C21.6739 13.5475 21.6169 13.3381 21.5186 13.1473Z" fill="#2E90FA"/>
<path d="M21.4143 21.3253C20.492 21.3253 20.0097 21.0852 19.5841 20.8733C19.2148 20.6894 18.923 20.5441 18.2764 20.5441C17.6297 20.5441 17.3379 20.6894 16.9685 20.8733C16.543 21.0852 16.0607 21.3253 15.1383 21.3253C14.216 21.3253 13.7337 21.0852 13.3082 20.8733C12.9388 20.6894 12.647 20.5441 12.0004 20.5441C11.3537 20.5441 11.0619 20.6894 10.6925 20.8733C10.267 21.0852 9.78468 21.3253 8.86232 21.3253C7.93996 21.3253 7.45765 21.0852 7.03206 20.8733C6.66264 20.6894 6.37088 20.5441 5.72411 20.5441C5.07735 20.5441 4.78558 20.6894 4.41617 20.8733C3.99065 21.0852 3.5083 21.3253 2.58595 21.3253C2.26235 21.3253 2 21.063 2 20.7394C2 20.4158 2.26235 20.1534 2.58595 20.1534C3.23271 20.1534 3.52447 20.0082 3.89389 19.8242C4.31945 19.6123 4.8018 19.3722 5.72415 19.3722C6.64651 19.3722 7.12886 19.6123 7.55441 19.8242C7.92383 20.0081 8.21559 20.1534 8.86232 20.1534C9.50901 20.1534 9.80077 20.0082 10.1701 19.8242C10.5957 19.6123 11.078 19.3722 12.0004 19.3722C12.9227 19.3722 13.405 19.6123 13.8306 19.8242C14.1999 20.0081 14.4917 20.1534 15.1383 20.1534C15.785 20.1534 16.0768 20.0082 16.4461 19.8243C16.8717 19.6124 17.354 19.3722 18.2763 19.3722C19.1986 19.3722 19.6809 19.6123 20.1065 19.8242C20.4759 20.0081 20.7676 20.1534 21.4143 20.1534C21.7379 20.1534 22.0002 20.4158 22.0002 20.7394C22.0002 21.063 21.7379 21.3253 21.4143 21.3253ZM17.2696 15.499C17.2195 15.4989 17.1695 15.4925 17.1211 15.4798L12.0001 14.1418L6.87925 15.4798C6.56615 15.5616 6.24599 15.3741 6.1642 15.061C6.0824 14.7479 6.2699 14.4278 6.58299 14.3459L11.852 12.9692C11.9491 12.9439 12.0511 12.9439 12.1483 12.9692L17.4173 14.3459C17.7304 14.4277 17.9179 14.7479 17.8361 15.061C17.7672 15.3244 17.5297 15.499 17.2696 15.499Z" fill="#84CAFF"/>
</svg>
