<svg width="24" height="24" viewBox="0 0 24 24" fill="none" xmlns="http://www.w3.org/2000/svg">
<path fill-rule="evenodd" clip-rule="evenodd" d="M18.9282 9.25C19.3424 9.25 19.6782 9.58579 19.6782 10V14C19.6782 14.4142 19.3424 14.75 18.9282 14.75C18.514 14.75 18.1782 14.4142 18.1782 14V10C18.1782 9.58579 18.514 9.25 18.9282 9.25Z" fill="#6C737F"/>
<path fill-rule="evenodd" clip-rule="evenodd" d="M17.8457 16.6251C18.0528 16.9838 17.9299 17.4425 17.5712 17.6496L14.1071 19.6496C13.7483 19.8568 13.2896 19.7338 13.0825 19.3751C12.8754 19.0164 12.9983 18.5577 13.3571 18.3506L16.8212 16.3506C17.1799 16.1435 17.6386 16.2664 17.8457 16.6251Z" fill="#6C737F"/>
<path fill-rule="evenodd" clip-rule="evenodd" d="M6.15432 16.6251C6.36142 16.2664 6.82012 16.1435 7.17884 16.3506L8.91089 17.3506L10.6429 18.3506C11.0017 18.5577 11.1246 19.0164 10.9175 19.3751C10.7103 19.7338 10.2517 19.8568 9.89294 19.6496L6.42884 17.6496C6.07012 17.4425 5.94721 16.9838 6.15432 16.6251Z" fill="#6C737F"/>
<path fill-rule="evenodd" clip-rule="evenodd" d="M5.07178 9.25C5.48599 9.25 5.82178 9.58579 5.82178 10V14C5.82178 14.4142 5.48599 14.75 5.07178 14.75C4.65756 14.75 4.32178 14.4142 4.32178 14V10C4.32178 9.58579 4.65756 9.25 5.07178 9.25Z" fill="#6C737F"/>
<path fill-rule="evenodd" clip-rule="evenodd" d="M10.9175 4.62513C11.1246 4.98384 11.0017 5.44254 10.6429 5.64964L7.17884 7.64964C6.82012 7.85675 6.36142 7.73384 6.15432 7.37513C5.94721 7.01641 6.07012 6.55771 6.42884 6.35061L9.89294 4.35061C10.2517 4.1435 10.7103 4.26641 10.9175 4.62513Z" fill="#6C737F"/>
<path fill-rule="evenodd" clip-rule="evenodd" d="M13.0825 4.62513C13.2896 4.26641 13.7483 4.1435 14.1071 4.35061L17.5712 6.35061C17.9299 6.55771 18.0528 7.01641 17.8457 7.37513C17.6386 7.73384 17.1799 7.85675 16.8212 7.64964L13.3571 5.64964C12.9983 5.44254 12.8754 4.98384 13.0825 4.62513Z" fill="#6C737F"/>
<path fill-rule="evenodd" clip-rule="evenodd" d="M9.25 20C9.25 18.4812 10.4812 17.25 12 17.25C13.5188 17.25 14.75 18.4812 14.75 20C14.75 21.5188 13.5188 22.75 12 22.75C10.4812 22.75 9.25 21.5188 9.25 20ZM12 18.75C11.3097 18.75 10.75 19.3097 10.75 20C10.75 20.6903 11.3097 21.25 12 21.25C12.6903 21.25 13.25 20.6903 13.25 20C13.25 19.3097 12.6903 18.75 12 18.75Z" fill="#6C737F"/>
<path fill-rule="evenodd" clip-rule="evenodd" d="M9.25 4C9.25 2.48121 10.4812 1.25 12 1.25C13.5188 1.25 14.75 2.48121 14.75 4C14.75 5.51876 13.5188 6.75 12 6.75C10.4812 6.75 9.25 5.51876 9.25 4ZM12 2.75C11.3097 2.75 10.75 3.30965 10.75 4C10.75 4.69034 11.3097 5.25 12 5.25C12.6903 5.25 13.25 4.69034 13.25 4C13.25 3.30965 12.6903 2.75 12 2.75Z" fill="#6C737F"/>
<path fill-rule="evenodd" clip-rule="evenodd" d="M9.25 12C9.25 10.4812 10.4812 9.25 12 9.25C13.5188 9.25 14.75 10.4812 14.75 12C14.75 13.5188 13.5188 14.75 12 14.75C10.4812 14.75 9.25 13.5188 9.25 12ZM12 10.75C11.3097 10.75 10.75 11.3097 10.75 12C10.75 12.6903 11.3097 13.25 12 13.25C12.6903 13.25 13.25 12.6903 13.25 12C13.25 11.3097 12.6903 10.75 12 10.75Z" fill="#6C737F"/>
<path fill-rule="evenodd" clip-rule="evenodd" d="M16.25 8C16.25 6.48124 17.4812 5.25 19 5.25C20.5188 5.25 21.75 6.48124 21.75 8C21.75 9.51876 20.5188 10.75 19 10.75C17.4812 10.75 16.25 9.51876 16.25 8ZM19 6.75C18.3097 6.75 17.75 7.30966 17.75 8C17.75 8.69034 18.3097 9.25 19 9.25C19.6903 9.25 20.25 8.69034 20.25 8C20.25 7.30966 19.6903 6.75 19 6.75Z" fill="#6C737F"/>
<path fill-rule="evenodd" clip-rule="evenodd" d="M16.25 16C16.25 14.4812 17.4812 13.25 19 13.25C20.5188 13.25 21.75 14.4812 21.75 16C21.75 17.5188 20.5188 18.75 19 18.75C17.4812 18.75 16.25 17.5188 16.25 16ZM19 14.75C18.3097 14.75 17.75 15.3097 17.75 16C17.75 16.6903 18.3097 17.25 19 17.25C19.6903 17.25 20.25 16.6903 20.25 16C20.25 15.3097 19.6903 14.75 19 14.75Z" fill="#6C737F"/>
<path fill-rule="evenodd" clip-rule="evenodd" d="M2.25 8C2.25 6.48124 3.48121 5.25 5 5.25C6.51876 5.25 7.75 6.48124 7.75 8C7.75 9.51876 6.51876 10.75 5 10.75C3.48121 10.75 2.25 9.51876 2.25 8ZM5 6.75C4.30965 6.75 3.75 7.30966 3.75 8C3.75 8.69034 4.30965 9.25 5 9.25C5.69034 9.25 6.25 8.69034 6.25 8C6.25 7.30966 5.69034 6.75 5 6.75Z" fill="#6C737F"/>
<path fill-rule="evenodd" clip-rule="evenodd" d="M2.25 16C2.25 14.4812 3.48121 13.25 5 13.25C6.51876 13.25 7.75 14.4812 7.75 16C7.75 17.5188 6.51876 18.75 5 18.75C3.48121 18.75 2.25 17.5188 2.25 16ZM5 14.75C4.30965 14.75 3.75 15.3097 3.75 16C3.75 16.6903 4.30965 17.25 5 17.25C5.69034 17.25 6.25 16.6903 6.25 16C6.25 15.3097 5.69034 14.75 5 14.75Z" fill="#6C737F"/>
</svg>
