<svg width="24" height="24" viewBox="0 0 24 24" fill="none" xmlns="http://www.w3.org/2000/svg">
<g id="Icon/Arrows/Sort-filled">
<path id="Vector" d="M7.5 13.75C7.22104 13.75 6.96513 13.9048 6.83567 14.1519C6.7062 14.399 6.72457 14.6975 6.88336 14.9269L11.3834 21.4269C11.5234 21.6293 11.7539 21.75 12 21.75C12.2461 21.75 12.4766 21.6293 12.6166 21.4269L17.1166 14.9269C17.2754 14.6975 17.2938 14.399 17.1643 14.1519C17.0349 13.9048 16.779 13.75 16.5 13.75H7.5Z" fill="#6C737F"/>
<path id="Vector_2" d="M12.6166 2.57309C12.4766 2.37074 12.2461 2.25 12 2.25C11.7539 2.25 11.5234 2.37074 11.3834 2.57309L6.88336 9.07309C6.72457 9.30245 6.7062 9.60098 6.83567 9.84808C6.96513 10.0952 7.22104 10.25 7.5 10.25H16.5C16.779 10.25 17.0349 10.0952 17.1643 9.84808C17.2938 9.60098 17.2754 9.30245 17.1166 9.07309L12.6166 2.57309Z" fill="#2E90FA"/>
</g>
</svg>
