<svg width="24" height="24" viewBox="0 0 24 24" fill="none" xmlns="http://www.w3.org/2000/svg">
<path d="M15.473 11.9822L10.0216 17.4333C9.96654 17.4883 9.92795 17.5577 9.91022 17.6335L9.00171 21.4885C8.98553 21.5575 8.98724 21.6296 9.00668 21.6979C9.02612 21.7661 9.06265 21.8283 9.1128 21.8785C9.19145 21.956 9.29743 21.9995 9.40788 21.9996C9.43905 21.9996 9.47171 21.996 9.5028 21.9883L13.3578 21.0795C13.4332 21.0618 13.5021 21.0233 13.5568 20.9685L19.0078 15.5171L15.473 11.9822ZM21.5115 10.6571L20.3329 9.47824C19.703 8.8484 18.6053 8.8484 17.9754 9.47824L16.3552 11.0985L19.8916 14.6346L21.5115 13.0146C21.6669 12.8603 21.7901 12.6766 21.8741 12.4742C21.958 12.2718 22.0009 12.0548 22.0004 11.8357C22.0004 11.3896 21.8267 10.9721 21.5115 10.6571Z" fill="#2E90FA"/>
<path d="M17 5.33375C16.5401 5.33375 16.1662 5.70758 16.1662 6.1675V7.83374C16.1662 8.29367 16.5401 8.66749 17 8.66749C17.4599 8.66749 17.8337 8.29367 17.8337 7.83374V6.1675C17.8337 5.70633 17.4599 5.33375 17 5.33375ZM14.1411 9.49999H10.75V7C10.75 6.54008 10.3762 6.16625 9.91624 6.16625C9.45632 6.16625 9.08374 6.54008 9.08374 7V9.49999H3.66625V5.95875C3.66625 5.49883 3.29242 5.125 2.8325 5.125C2.37258 5.125 2 5.49766 2 5.95875V17.4175C2 18.5648 2.93508 19.5 4.08375 19.5H7.70007C8.15999 19.5 8.53382 19.1261 8.53382 18.6662C8.53382 18.2063 8.15999 17.8325 7.70007 17.8325H4.08367C4.029 17.8325 3.97487 17.8217 3.92436 17.8008C3.87386 17.7799 3.82797 17.7493 3.78932 17.7106C3.75067 17.6719 3.72001 17.626 3.69911 17.5755C3.67821 17.525 3.66747 17.4709 3.6675 17.4162V15.3325H9.91749C10.3773 15.3337 10.75 14.9598 10.75 14.5V11.1662H14.1411C14.6012 11.1662 14.9748 10.7924 14.9748 10.3325C14.9748 9.87257 14.6026 9.49999 14.1411 9.49999ZM3.66625 11.1662H9.08249V13.6662H3.66625V11.1662Z" fill="#84CAFF"/>
<path d="M15.9587 2H3.875C2.84015 2 2 2.84015 2 3.875V6.99999H17.8337V3.875C17.8337 2.84015 16.9939 2 15.9587 2Z" fill="#2E90FA"/>
</svg>
