<svg width="24" height="24" viewBox="0 0 24 24" fill="none" xmlns="http://www.w3.org/2000/svg">
<g id="Icon/Outlined/Person">
<path id="Vector" d="M12 2.25C9.65279 2.25 7.75 4.15279 7.75 6.5C7.75 8.84721 9.65279 10.75 12 10.75C14.3472 10.75 16.25 8.84721 16.25 6.5C16.25 4.15279 14.3472 2.25 12 2.25ZM9.25 6.5C9.25 4.98122 10.4812 3.75 12 3.75C13.5188 3.75 14.75 4.98122 14.75 6.5C14.75 8.01879 13.5188 9.25 12 9.25C10.4812 9.25 9.25 8.01879 9.25 6.5ZM14.633 13.25C15.7251 13.25 16.5906 13.25 17.2883 13.307C18.0016 13.3653 18.6053 13.4869 19.1564 13.7677C20.0502 14.2231 20.7769 14.9498 21.2323 15.8436C21.5131 16.3947 21.6347 16.9984 21.693 17.7117C21.75 18.4094 21.75 19.2748 21.75 20.367V21C21.75 21.4142 21.4142 21.75 21 21.75H3C2.58579 21.75 2.25 21.4142 2.25 21V20.367C2.24999 19.2749 2.24999 18.4094 2.30699 17.7117C2.36527 16.9984 2.48688 16.3947 2.76772 15.8436C3.22311 14.9498 3.94977 14.2231 4.84356 13.7677C5.39473 13.4869 5.99836 13.3653 6.71175 13.307C7.40936 13.25 8.27485 13.25 9.36699 13.25H14.633ZM4.10423 16.5245C3.94909 16.829 3.85271 17.2133 3.80201 17.8339C3.75288 18.4351 3.75015 19.1959 3.75001 20.25H20.25C20.2498 19.1959 20.2471 18.4351 20.198 17.8339C20.1473 17.2133 20.0509 16.829 19.8958 16.5245C19.5842 15.913 19.087 15.4158 18.4755 15.1042C18.171 14.9491 17.7867 14.8527 17.1661 14.802C16.5367 14.7506 15.7325 14.75 14.6 14.75H9.4C8.26752 14.75 7.46327 14.7506 6.83389 14.802C6.21327 14.8527 5.829 14.9491 5.52453 15.1042C4.913 15.4158 4.41582 15.913 4.10423 16.5245Z" fill="#6C737F"/>
</g>
</svg>
