<svg width="24" height="24" viewBox="0 0 24 24" fill="none" xmlns="http://www.w3.org/2000/svg">
<g id="Icon/Permission">
<g id="Group">
<path id="Vector" fill-rule="evenodd" clip-rule="evenodd" d="M10.6047 19.6865H3.5814C3.53205 19.6865 3.48473 19.6669 3.44984 19.632C3.41495 19.5971 3.39535 19.5498 3.39535 19.5005V18.1516C3.39535 17.3786 3.94698 16.6977 4.79721 16.1191C6.31535 15.0828 8.77209 14.4298 11.5349 14.4298C11.9907 14.4298 12.4381 14.4484 12.8753 14.4828C12.9678 14.4921 13.0611 14.4829 13.1499 14.4556C13.2387 14.4284 13.3212 14.3837 13.3925 14.3241C13.4638 14.2646 13.5225 14.1914 13.5651 14.1089C13.6077 14.0263 13.6335 13.9361 13.6408 13.8435C13.6481 13.7509 13.6368 13.6578 13.6077 13.5696C13.5785 13.4814 13.532 13.3999 13.471 13.3299C13.4099 13.2599 13.3355 13.2029 13.252 13.162C13.1686 13.1212 13.0779 13.0974 12.9851 13.0921C12.5027 13.0534 12.0189 13.0342 11.5349 13.0344C8.44465 13.0344 5.70884 13.8074 4.01023 14.9656C2.71442 15.8493 2 16.9721 2 18.1507V19.5005C2.00025 19.9197 2.16697 20.3217 2.46351 20.6181C2.76005 20.9144 3.16214 21.0809 3.5814 21.0809L10.6047 21.0819C10.7897 21.0819 10.9671 21.0084 11.098 20.8775C11.2288 20.7467 11.3023 20.5692 11.3023 20.3842C11.3023 20.1992 11.2288 20.0217 11.098 19.8909C10.9671 19.76 10.7897 19.6865 10.6047 19.6865ZM11.5349 2C8.7107 2 6.4186 4.29209 6.4186 7.11628C6.4186 9.94047 8.7107 12.2326 11.5349 12.2326C14.3591 12.2326 16.6512 9.94047 16.6512 7.11628C16.6512 4.29209 14.3591 2 11.5349 2ZM11.5349 3.39535C13.5888 3.39535 15.2558 5.06233 15.2558 7.11628C15.2558 9.17023 13.5888 10.8372 11.5349 10.8372C9.48093 10.8372 7.81395 9.17023 7.81395 7.11628C7.81395 5.06233 9.48093 3.39535 11.5349 3.39535ZM17.7228 19.6353C18.3518 19.7307 18.9948 19.6633 19.5903 19.4395C20.1859 19.2158 20.7142 18.8432 21.1249 18.3573C21.5356 17.8714 21.8149 17.2883 21.9362 16.6638C22.0575 16.0393 22.0168 15.3941 21.818 14.7897C21.6191 14.1854 21.2687 13.6421 20.8002 13.2117C20.3318 12.7812 19.7608 12.478 19.1418 12.3309C18.5229 12.1838 17.8765 12.1977 17.2645 12.3713C16.6524 12.545 16.0951 12.8726 15.6456 13.3228C15.2332 13.7348 14.9234 14.238 14.7413 14.7917C14.5592 15.3455 14.5098 15.9343 14.5972 16.5107L12.4372 18.6698C12.3723 18.7346 12.3208 18.8116 12.2857 18.8964C12.2506 18.9811 12.2325 19.072 12.2326 19.1637V21.3023C12.2326 21.6874 12.5451 22 12.9302 22H15.0688C15.1606 22 15.2514 21.982 15.3362 21.9469C15.421 21.9118 15.498 21.8603 15.5628 21.7954L17.7228 19.6353ZM17.6744 18.2028C17.5563 18.1713 17.432 18.1714 17.314 18.2031C17.196 18.2348 17.0883 18.2969 17.0019 18.3833L14.7805 20.6047H13.6279V19.4521L15.8493 17.2307C15.9357 17.1442 15.9978 17.0366 16.0294 16.9185C16.0611 16.8005 16.0612 16.6762 16.0298 16.5581C15.8984 16.0635 15.9336 15.5394 16.1299 15.0667C16.3263 14.5941 16.6728 14.1993 17.1159 13.9433C17.5591 13.6873 18.0742 13.5844 18.5818 13.6505C19.0893 13.7165 19.5609 13.9479 19.9237 14.3088C20.2846 14.6717 20.516 15.1433 20.5821 15.6508C20.6482 16.1583 20.5453 16.6734 20.2893 17.1166C20.0333 17.5598 19.6385 17.9063 19.1658 18.1026C18.6932 18.299 18.1691 18.3342 17.6744 18.2028Z" fill="#6C737F"/>
<path id="Vector_2" fill-rule="evenodd" clip-rule="evenodd" d="M17.565 16.6678C17.4677 16.5748 17.39 16.4634 17.3364 16.34C17.2828 16.2166 17.2545 16.0837 17.253 15.9492C17.2515 15.8147 17.2769 15.6812 17.3278 15.5566C17.3786 15.4321 17.4538 15.3189 17.549 15.2239C17.6442 15.1288 17.7574 15.0537 17.8821 15.003C18.0067 14.9524 18.1402 14.9271 18.2747 14.9288C18.4092 14.9305 18.5421 14.959 18.6654 15.0127C18.7887 15.0665 18.9001 15.1443 18.9929 15.2417C19.1747 15.4325 19.2747 15.6869 19.2715 15.9505C19.2682 16.2141 19.162 16.4659 18.9755 16.6522C18.7889 16.8384 18.537 16.9443 18.2734 16.9473C18.0098 16.9502 17.7556 16.8499 17.565 16.6678Z" fill="#6C737F"/>
</g>
</g>
</svg>
