<svg width="24" height="24" viewBox="0 0 24 24" fill="none" xmlns="http://www.w3.org/2000/svg">
<g id="Active=No">
<path id="Vector" d="M19 10H19.75C19.75 9.73086 19.6058 9.48235 19.3721 9.34882L19 10ZM12 22L11.6279 22.6512C11.8585 22.7829 12.1415 22.7829 12.3721 22.6512L12 22ZM5 10L4.6279 9.34882C4.39421 9.48235 4.25 9.73086 4.25 10H5ZM12.75 3C12.75 2.58579 12.4142 2.25 12 2.25C11.5858 2.25 11.25 2.58579 11.25 3H12.75ZM21.6646 20.1708C22.0351 20.3561 22.4856 20.2059 22.6708 19.8354C22.8561 19.4649 22.7059 19.0144 22.3354 18.8292L21.6646 20.1708ZM1.66459 18.8292C1.29411 19.0144 1.14394 19.4649 1.32918 19.8354C1.51442 20.2059 1.96493 20.3561 2.33541 20.1708L1.66459 18.8292ZM11.6279 6.65118L18.6279 10.6512L19.3721 9.34882L12.3721 5.34882L11.6279 6.65118ZM18.25 10V18H19.75V10H18.25ZM18.6279 17.3488L11.6279 21.3488L12.3721 22.6512L19.3721 18.6512L18.6279 17.3488ZM12.3721 21.3488L5.3721 17.3488L4.6279 18.6512L11.6279 22.6512L12.3721 21.3488ZM5.75 18V10H4.25V18H5.75ZM5.3721 10.6512L12.3721 6.65118L11.6279 5.34882L4.6279 9.34882L5.3721 10.6512ZM11.25 3V6H12.75V3H11.25ZM4.6279 10.6512L11.6279 14.6512L12.3721 13.3488L5.3721 9.34882L4.6279 10.6512ZM12.3721 14.6512L19.3721 10.6512L18.6279 9.34882L11.6279 13.3488L12.3721 14.6512ZM18.6646 18.6708L21.6646 20.1708L22.3354 18.8292L19.3354 17.3292L18.6646 18.6708ZM2.33541 20.1708L5.33541 18.6708L4.66459 17.3292L1.66459 18.8292L2.33541 20.1708ZM11.25 14V22H12.75V14H11.25ZM15.1279 8.65118L18.6279 10.6512L19.3721 9.34882L15.8721 7.34882L15.1279 8.65118ZM18.25 10V14H19.75V10H18.25ZM8.1279 7.34882L4.6279 9.34882L5.3721 10.6512L8.8721 8.65118L8.1279 7.34882ZM4.25 10V14H5.75V10H4.25ZM8.1279 20.6512L11.6279 22.6512L12.3721 21.3488L8.8721 19.3488L8.1279 20.6512ZM12.3721 22.6512L15.8721 20.6512L15.1279 19.3488L11.6279 21.3488L12.3721 22.6512Z" fill="#6C737F"/>
</g>
</svg>
