<svg width="24" height="24" viewBox="0 0 24 24" fill="none" xmlns="http://www.w3.org/2000/svg">
<path d="M12 6L19 10V18L12 22L5 18V10L12 6Z" fill="#2E90FA"/>
<path fill-rule="evenodd" clip-rule="evenodd" d="M12 2.25C12.4142 2.25 12.75 2.58579 12.75 3V6C12.75 6.41421 12.4142 6.75 12 6.75C11.5858 6.75 11.25 6.41421 11.25 6V3C11.25 2.58579 11.5858 2.25 12 2.25Z" fill="#2E90FA"/>
<path fill-rule="evenodd" clip-rule="evenodd" d="M4.34895 9.62802C4.55445 9.26839 5.01259 9.14344 5.37223 9.34895L12.0001 13.1363L18.628 9.34895C18.9877 9.14344 19.4458 9.26839 19.6513 9.62802C19.8568 9.98766 19.7319 10.4458 19.3722 10.6513L12.3722 14.6513C12.1417 14.7831 11.8586 14.7831 11.628 14.6513L4.62802 10.6513C4.26839 10.4458 4.14344 9.98766 4.34895 9.62802Z" fill="#84CAFF"/>
<path fill-rule="evenodd" clip-rule="evenodd" d="M18.3293 17.6648C18.5146 17.2943 18.9651 17.1441 19.3356 17.3293L22.3356 18.8293C22.7061 19.0146 22.8562 19.4651 22.671 19.8356C22.4857 20.2061 22.0352 20.3562 21.6648 20.171L18.6648 18.671C18.2943 18.4857 18.1441 18.0352 18.3293 17.6648Z" fill="#2E90FA"/>
<path fill-rule="evenodd" clip-rule="evenodd" d="M5.67098 17.6648C5.85623 18.0352 5.70606 18.4857 5.33557 18.671L2.33557 20.171C1.96509 20.3562 1.51459 20.2061 1.32934 19.8356C1.1441 19.4651 1.29427 19.0146 1.66475 18.8293L4.66475 17.3293C5.03524 17.1441 5.48574 17.2943 5.67098 17.6648Z" fill="#2E90FA"/>
<path fill-rule="evenodd" clip-rule="evenodd" d="M12 13.25C12.4142 13.25 12.75 13.5858 12.75 14V22C12.75 22.4142 12.4142 22.75 12 22.75C11.5858 22.75 11.25 22.4142 11.25 22V14C11.25 13.5858 11.5858 13.25 12 13.25Z" fill="#84CAFF"/>
<path fill-rule="evenodd" clip-rule="evenodd" d="M11.6279 5.34882C11.8585 5.21706 12.1415 5.21706 12.3721 5.34882L19.3721 9.34882C19.6058 9.48235 19.75 9.73086 19.75 10V18C19.75 18.2691 19.6058 18.5177 19.3721 18.6512L12.3721 22.6512C12.1415 22.7829 11.8585 22.7829 11.6279 22.6512L4.6279 18.6512C4.39421 18.5177 4.25 18.2691 4.25 18V10C4.25 9.73086 4.39421 9.48235 4.6279 9.34882L11.6279 5.34882ZM5.75 10.4352V17.5648L12 21.1362L18.25 17.5648V10.4352L12 6.86381L5.75 10.4352Z" fill="#2E90FA"/>
</svg>
