<svg width="24" height="24" viewBox="0 0 24 24" fill="none" xmlns="http://www.w3.org/2000/svg">
<g id="Icon/Outlined/Close-circle">
<path id="Icon (Stroke)" fill-rule="evenodd" clip-rule="evenodd" d="M12 3.53846C7.32682 3.53846 3.53846 7.32682 3.53846 12C3.53846 16.6732 7.32682 20.4615 12 20.4615C16.6732 20.4615 20.4615 16.6732 20.4615 12C20.4615 7.32682 16.6732 3.53846 12 3.53846ZM2 12C2 6.47715 6.47715 2 12 2C17.5228 2 22 6.47715 22 12C22 17.5228 17.5228 22 12 22C6.47715 22 2 17.5228 2 12ZM8.68684 8.68684C8.98724 8.38644 9.47429 8.38644 9.7747 8.68684L12 10.9121L14.2253 8.68684C14.5257 8.38644 15.0128 8.38644 15.3132 8.68684C15.6136 8.98724 15.6136 9.47429 15.3132 9.7747L13.0879 12L15.3132 14.2253C15.6136 14.5257 15.6136 15.0128 15.3132 15.3132C15.0128 15.6136 14.5257 15.6136 14.2253 15.3132L12 13.0879L9.7747 15.3132C9.47429 15.6136 8.98724 15.6136 8.68684 15.3132C8.38644 15.0128 8.38644 14.5257 8.68684 14.2253L10.9121 12L8.68684 9.7747C8.38644 9.47429 8.38644 8.98724 8.68684 8.68684Z" fill="#6C737F"/>
</g>
</svg>
