<svg width="24" height="24" viewBox="0 0 24 24" fill="none" xmlns="http://www.w3.org/2000/svg">
<g clip-path="url(#clip0_639_27849)">
<path d="M15.5238 18.5929C15.3684 18.5929 15.2194 18.656 15.1095 18.7684C14.9996 18.8808 14.9379 19.0332 14.9379 19.1922V19.7915L9.07852 19.8002V19.201C9.07852 19.042 9.01678 18.8896 8.9069 18.7772C8.79701 18.6648 8.64798 18.6017 8.49258 18.6017C8.33718 18.6017 8.18814 18.6648 8.07826 18.7772C7.96837 18.8896 7.90664 19.042 7.90664 19.201V20.3995C7.90664 20.5585 7.96837 20.7109 8.07826 20.8233C8.18814 20.9357 8.33718 20.9988 8.49258 20.9988L15.5238 20.9888C15.6792 20.9888 15.8283 20.9257 15.9381 20.8133C16.048 20.7009 16.1098 20.5485 16.1098 20.3895V19.191C16.1098 19.032 16.048 18.8796 15.9381 18.7672C15.8283 18.6548 15.6792 18.5917 15.5238 18.5917V18.5929ZM19.0148 7.13743C18.7617 6.08553 18.1707 5.15096 17.3365 4.48338C16.5023 3.8158 15.4732 3.45383 14.4141 3.45545C13.5769 3.45142 12.7541 3.67714 12.0312 4.10907C11.2653 3.39706 10.2679 3.00177 9.23281 3C8.15512 3.00167 7.12 3.43049 6.34496 4.19636C5.56991 4.96224 5.11527 6.00554 5.07656 7.10707C3.31289 7.60687 2 9.28086 2 11.1986C2 13.5449 3.90508 15.4539 6.19922 15.4539H10.8281C10.9835 15.4539 11.1326 15.3907 11.2424 15.2783C11.3523 15.1659 11.4141 15.0135 11.4141 14.8546V12.014C11.4141 11.855 11.3523 11.7026 11.2424 11.5902C11.1326 11.4778 10.9835 11.4147 10.8281 11.4147H10.75L12 9.48742L13.25 11.4023H13.1719C13.0165 11.4023 12.8674 11.4655 12.7576 11.5778C12.6477 11.6902 12.5859 11.8427 12.5859 12.0016V14.8546C12.5859 15.0135 12.6477 15.1659 12.7576 15.2783C12.8674 15.3907 13.0165 15.4539 13.1719 15.4539H17.8012C20.0949 15.4539 22 13.5449 22 11.1986C22 9.32081 20.7434 7.67519 19.0148 7.13823V7.13743Z" fill="url(#paint0_linear_639_27849)"/>
<path d="M14.8312 11.6682L12.4875 8.07254C12.4339 7.99046 12.3615 7.92315 12.2764 7.87659C12.1914 7.83003 12.0964 7.80567 12 7.80566C11.9034 7.80576 11.8084 7.83024 11.7234 7.87694C11.6383 7.92364 11.5659 7.99111 11.5125 8.07334L9.1687 11.681C9.11001 11.7714 9.07639 11.8763 9.07144 11.9847C9.06649 12.093 9.09038 12.2007 9.14058 12.2963C9.19063 12.3917 9.26505 12.4715 9.35591 12.5272C9.44678 12.5828 9.55069 12.6122 9.65659 12.6123H10.2425L10.2539 18.0082C10.2545 18.1667 10.3165 18.3186 10.4263 18.4304C10.5361 18.5423 10.6848 18.6051 10.8398 18.6051H10.8429L13.1867 18.5927C13.342 18.5918 13.4906 18.5278 13.5998 18.4148C13.709 18.3018 13.7699 18.1491 13.7691 17.9902L13.7578 12.5991H14.3437C14.4991 12.5991 14.6481 12.536 14.758 12.4236C14.8679 12.3112 14.9296 12.1588 14.9296 11.9998C14.9295 11.8818 14.8952 11.7664 14.8312 11.6682Z" fill="url(#paint1_linear_639_27849)"/>
</g>
<defs>
<linearGradient id="paint0_linear_639_27849" x1="12" y1="21" x2="12" y2="2.9996" gradientUnits="userSpaceOnUse">
<stop stop-color="#5558FF"/>
<stop offset="1" stop-color="#00C0FF"/>
</linearGradient>
<linearGradient id="paint1_linear_639_27849" x1="12" y1="18.6051" x2="12" y2="7.80566" gradientUnits="userSpaceOnUse">
<stop stop-color="#ADDCFF"/>
<stop offset="0.5" stop-color="#EAF6FF"/>
<stop offset="1" stop-color="#EAF6FF"/>
</linearGradient>
<clipPath id="clip0_639_27849">
<rect width="20" height="18" fill="white" transform="translate(2 3)"/>
</clipPath>
</defs>
</svg>
