<svg width="24" height="24" viewBox="0 0 24 24" fill="none" xmlns="http://www.w3.org/2000/svg">
<g id="Active=Yes">
<path id="Vector" d="M2.25 4C2.25 3.0335 3.0335 2.25 4 2.25H9C9.9665 2.25 10.75 3.0335 10.75 4V9C10.75 9.9665 9.9665 10.75 9 10.75H4C3.0335 10.75 2.25 9.9665 2.25 9V4ZM2.25 15C2.25 14.0335 3.0335 13.25 4 13.25H9C9.9665 13.25 10.75 14.0335 10.75 15V20C10.75 20.9665 9.9665 21.75 9 21.75H4C3.0335 21.75 2.25 20.9665 2.25 20V15ZM13.25 15C13.25 14.0335 14.0335 13.25 15 13.25H20C20.9665 13.25 21.75 14.0335 21.75 15V20C21.75 20.9665 20.9665 21.75 20 21.75H15C14.0335 21.75 13.25 20.9665 13.25 20V15Z" fill="#2E90FA"/>
<path id="Vector_2" d="M13.25 6.5C13.25 4.15279 15.1528 2.25 17.5 2.25C19.8472 2.25 21.75 4.15279 21.75 6.5C21.75 8.84721 19.8472 10.75 17.5 10.75C15.1528 10.75 13.25 8.84721 13.25 6.5Z" fill="#84CAFF"/>
</g>
</svg>
