<svg width="24" height="24" viewBox="0 0 24 24" fill="none" xmlns="http://www.w3.org/2000/svg">
<g id="Icon/Permission_data">
<g id="Group 4056">
<g id="Vector">
<path fill-rule="evenodd" clip-rule="evenodd" d="M3.04688 2.79062C3.04688 1.80169 3.84856 1 4.8375 1H19.1625C20.1514 1 20.9531 1.8017 20.9531 2.79062V21.2084C20.9531 22.1974 20.1514 22.9991 19.1625 22.9991H4.8375C3.84857 22.9991 3.04688 22.1974 3.04688 21.2084V2.79062ZM4.8375 2.53482C4.69622 2.53482 4.58169 2.64934 4.58169 2.79062V21.2084C4.58169 21.3497 4.69621 21.4642 4.8375 21.4642H19.1625C19.3037 21.4642 19.4183 21.3497 19.4183 21.2084V2.79062C19.4183 2.64934 19.3037 2.53482 19.1625 2.53482H4.8375Z" fill="#6C737F"/>
<path fill-rule="evenodd" clip-rule="evenodd" d="M7.65133 15.0692C7.65133 14.6453 7.99491 14.3018 8.41874 14.3018H15.5812C16.005 14.3018 16.3486 14.6453 16.3486 15.0692C16.3486 15.493 16.005 15.8366 15.5812 15.8366H8.41874C7.99491 15.8366 7.65133 15.493 7.65133 15.0692Z" fill="#6C737F"/>
<path fill-rule="evenodd" clip-rule="evenodd" d="M7.65133 18.1388C7.65133 17.715 7.99491 17.3714 8.41874 17.3714H12C12.4238 17.3714 12.7674 17.715 12.7674 18.1388C12.7674 18.5626 12.4238 18.9062 12 18.9062H8.41874C7.99491 18.9062 7.65133 18.5626 7.65133 18.1388Z" fill="#6C737F"/>
</g>
<path id="Icon (Stroke)" fill-rule="evenodd" clip-rule="evenodd" d="M12.0001 5.60513C11.7638 5.60513 11.5291 5.70336 11.35 5.89143C11.1697 6.08077 11.0622 6.34522 11.0622 6.62834V7.29343H12.9381V6.62834C12.9381 6.34522 12.8306 6.08077 12.6503 5.89143C12.4712 5.70336 12.2365 5.60513 12.0001 5.60513ZM14.4729 7.29588V6.62834C14.4729 5.96166 14.221 5.31521 13.7617 4.83293C13.3012 4.34939 12.6684 4.07031 12.0001 4.07031C11.3319 4.07031 10.6991 4.34939 10.2386 4.83293C9.77924 5.31521 9.52737 5.96166 9.52737 6.62834V7.29588C8.73576 7.3416 8.16309 8.02031 8.16309 8.77709V11.284C8.16309 12.0676 8.77722 12.7676 9.61264 12.7676H14.3876C15.223 12.7676 15.8372 12.0676 15.8372 11.284V8.77709C15.8372 8.02031 15.2645 7.3416 14.4729 7.29588ZM9.6979 8.82825V11.2328H14.3024V8.82825H9.6979Z" fill="#6C737F"/>
</g>
</g>
</svg>
