<svg width="24" height="24" viewBox="0 0 24 24" fill="none" xmlns="http://www.w3.org/2000/svg">
<path d="M7 2C6.3125 2 5.75 2.5625 5.75 3.25V20.75C5.75 21.4375 6.3125 22 7 22H19.5C20.1875 22 20.75 21.4375 20.75 20.75V7L15.75 2H7Z" fill="#E5E7EB"/>
<path d="M17 7H20.75L15.75 2V5.75C15.75 6.4375 16.3125 7 17 7Z" fill="#9DA4AE"/>
<path d="M20.75 10.75L17 7H20.75V10.75Z" fill="#D2D6DB"/>
<path d="M18 18.25C18 18.5938 17.7188 18.875 17.375 18.875H3.625C3.28125 18.875 3 18.5938 3 18.25V12C3 11.6562 3.28125 11.375 3.625 11.375H17.375C17.7188 11.375 18 11.6562 18 12V18.25Z" fill="#2E90FA"/>
<path d="M6.65329 13.0556C6.91782 13.0556 7.15295 13.1056 7.3587 13.2056C7.56444 13.3056 7.73712 13.4463 7.87673 13.6278C8.02001 13.8056 8.12656 14.013 8.19636 14.25C8.26984 14.4833 8.30658 14.7333 8.30658 15C8.30658 15.3593 8.24229 15.687 8.1137 15.9833C7.98511 16.2759 7.79774 16.5093 7.55158 16.6833C7.3091 16.8574 7.00967 16.9444 6.65329 16.9444H5.33617C5.24065 16.9444 5.15982 16.913 5.09369 16.85C5.03123 16.7833 5 16.7019 5 16.6056V13.3944C5 13.2981 5.03123 13.2185 5.09369 13.1556C5.15982 13.0889 5.24065 13.0556 5.33617 13.0556H6.65329ZM6.59818 16.3056C6.82964 16.3056 7.01885 16.2463 7.16581 16.1278C7.31277 16.0056 7.41932 15.8463 7.48545 15.65C7.55525 15.45 7.59016 15.2333 7.59016 15C7.59016 14.8259 7.56995 14.6611 7.52954 14.5056C7.4928 14.3463 7.43401 14.2074 7.35319 14.0889C7.27236 13.9667 7.16949 13.8704 7.04457 13.8C6.91966 13.7296 6.77086 13.6944 6.59818 13.6944H5.63376L5.68887 13.6444V16.3667L5.65581 16.3056H6.59818Z" fill="white"/>
<path d="M12.4886 15C12.4886 15.2778 12.4426 15.537 12.3508 15.7778C12.2589 16.0185 12.1285 16.2315 11.9595 16.4167C11.7942 16.5981 11.5958 16.7407 11.3643 16.8444C11.1365 16.9481 10.8867 17 10.6148 17C10.3429 17 10.0931 16.9481 9.86533 16.8444C9.63754 16.7407 9.43915 16.5981 9.27014 16.4167C9.10481 16.2315 8.97623 16.0185 8.88438 15.7778C8.79253 15.537 8.7466 15.2778 8.7466 15C8.7466 14.7222 8.79253 14.463 8.88438 14.2222C8.97623 13.9815 9.10481 13.7704 9.27014 13.5889C9.43915 13.4037 9.63754 13.2593 9.86533 13.1556C10.0931 13.0519 10.3429 13 10.6148 13C10.8867 13 11.1365 13.0519 11.3643 13.1556C11.5958 13.2593 11.7942 13.4037 11.9595 13.5889C12.1285 13.7704 12.2589 13.9815 12.3508 14.2222C12.4426 14.463 12.4886 14.7222 12.4886 15ZM11.7721 15C11.7721 14.7519 11.7225 14.5278 11.6233 14.3278C11.5241 14.1241 11.3882 13.963 11.2155 13.8444C11.0428 13.7259 10.8426 13.6667 10.6148 13.6667C10.387 13.6667 10.1868 13.7259 10.0141 13.8444C9.84145 13.963 9.70551 14.1222 9.60631 14.3222C9.51079 14.5222 9.46303 14.7481 9.46303 15C9.46303 15.2481 9.51079 15.4741 9.60631 15.6778C9.70551 15.8778 9.84145 16.037 10.0141 16.1556C10.1868 16.2741 10.387 16.3333 10.6148 16.3333C10.8426 16.3333 11.0428 16.2741 11.2155 16.1556C11.3882 16.037 11.5241 15.8778 11.6233 15.6778C11.7225 15.4741 11.7721 15.2481 11.7721 15Z" fill="white"/>
<path d="M15.8215 13.2444C15.9171 13.2926 15.9722 13.3685 15.9869 13.4722C16.0052 13.5759 15.9795 13.6704 15.9097 13.7556C15.8619 13.8222 15.7995 13.8593 15.7223 13.8667C15.6489 13.8741 15.5735 13.8593 15.4964 13.8222C15.4082 13.7815 15.3145 13.75 15.2153 13.7278C15.1198 13.7056 15.0188 13.6944 14.9122 13.6944C14.7138 13.6944 14.5356 13.7259 14.3777 13.7889C14.2233 13.8519 14.0911 13.9426 13.9809 14.0611C13.8706 14.1759 13.7861 14.313 13.7274 14.4722C13.6722 14.6315 13.6447 14.8074 13.6447 15C13.6447 15.2259 13.6759 15.4222 13.7384 15.5889C13.8045 15.7556 13.8945 15.8944 14.0084 16.0056C14.1223 16.1167 14.2564 16.2 14.4107 16.2556C14.565 16.3074 14.7322 16.3333 14.9122 16.3333C15.0114 16.3333 15.1106 16.3241 15.2098 16.3056C15.309 16.287 15.4045 16.2537 15.4964 16.2056C15.5735 16.1685 15.6489 16.1556 15.7223 16.1667C15.7995 16.1778 15.8638 16.2167 15.9152 16.2833C15.9887 16.3759 16.0144 16.4722 15.9924 16.5722C15.974 16.6685 15.9189 16.7389 15.827 16.7833C15.7315 16.8315 15.6323 16.8722 15.5294 16.9056C15.4303 16.9352 15.3292 16.9574 15.2263 16.9722C15.1235 16.9907 15.0188 17 14.9122 17C14.6477 17 14.396 16.9574 14.1572 16.8722C13.9221 16.787 13.7108 16.6611 13.5235 16.4944C13.3398 16.3278 13.1946 16.1204 13.0881 15.8722C12.9815 15.6204 12.9283 15.3296 12.9283 15C12.9283 14.7148 12.976 14.4519 13.0716 14.2111C13.1708 13.9704 13.3085 13.763 13.4849 13.5889C13.6649 13.4111 13.8762 13.2741 14.1186 13.1778C14.3611 13.0778 14.6256 13.0278 14.9122 13.0278C15.0739 13.0278 15.2319 13.0463 15.3862 13.0833C15.5405 13.1204 15.6856 13.1741 15.8215 13.2444Z" fill="white"/>
<path d="M17.625 18.875H5.75V19.5H17.625C17.9688 19.5 18.25 19.2188 18.25 18.875V18.25C18.25 18.5938 17.9688 18.875 17.625 18.875Z" fill="#D2D6DB"/>
</svg>
