<svg width="24" height="24" viewBox="0 0 24 24" fill="none" xmlns="http://www.w3.org/2000/svg">
<g id="Icon/Outlined/Download_three">
<g id="Vector">
<path d="M4.5 3.75C4.08579 3.75 3.75 4.08579 3.75 4.5V19.5C3.75 19.9142 4.08579 20.25 4.5 20.25H19.5C19.9142 20.25 20.25 19.9142 20.25 19.5V4.5C20.25 4.08579 19.9142 3.75 19.5 3.75H4.5ZM2.25 4.5C2.25 3.25736 3.25736 2.25 4.5 2.25H19.5C20.7426 2.25 21.75 3.25736 21.75 4.5V19.5C21.75 20.7426 20.7426 21.75 19.5 21.75H4.5C3.25736 21.75 2.25 20.7426 2.25 19.5V4.5Z" fill="#6C737F"/>
<path d="M7.46967 13.4697C7.76256 13.1768 8.23744 13.1768 8.53033 13.4697L12 16.9393L15.4697 13.4697C15.7626 13.1768 16.2374 13.1768 16.5303 13.4697C16.8232 13.7626 16.8232 14.2374 16.5303 14.5303L12.5303 18.5303C12.2374 18.8232 11.7626 18.8232 11.4697 18.5303L7.46967 14.5303C7.17678 14.2374 7.17678 13.7626 7.46967 13.4697Z" fill="#6C737F"/>
<path d="M12 9.25C12.4142 9.25 12.75 9.58579 12.75 10V17.75C12.75 18.1642 12.4142 18.5 12 18.5C11.5858 18.5 11.25 18.1642 11.25 17.75V10C11.25 9.58579 11.5858 9.25 12 9.25Z" fill="#6C737F"/>
<path d="M7.25 7C7.25 6.58579 7.58579 6.25 8 6.25H16C16.4142 6.25 16.75 6.58579 16.75 7C16.75 7.41421 16.4142 7.75 16 7.75H8C7.58579 7.75 7.25 7.41421 7.25 7Z" fill="#6C737F"/>
</g>
</g>
</svg>
