<svg width="24" height="24" viewBox="0 0 24 24" fill="none" xmlns="http://www.w3.org/2000/svg">
<g clip-path="url(#clip0_640_28429)">
<path d="M6.857 2C6.5163 2.00093 6.18983 2.13292 5.94892 2.36714C5.70801 2.60136 5.57224 2.91876 5.57129 3.25V20.75C5.57224 21.0812 5.70801 21.3986 5.94892 21.6329C6.18983 21.8671 6.5163 21.9991 6.857 22H19.7141C20.0548 21.9991 20.3813 21.8671 20.6222 21.6329C20.8631 21.3986 20.9989 21.0812 20.9999 20.75V7L15.857 2H6.857Z" fill="#FEEFC7"/>
<path d="M17.1426 7H20.9998L15.8569 2V5.75C15.8579 6.08124 15.9937 6.39864 16.2346 6.63286C16.4755 6.86708 16.8019 6.99907 17.1426 7Z" fill="#FEC84B"/>
<path d="M21.0002 10.75L17.1431 7H21.0002V10.75Z" fill="#FEDF89"/>
<path d="M18.4286 18.25C18.4286 18.4158 18.3608 18.5747 18.2403 18.6919C18.1197 18.8092 17.9562 18.875 17.7857 18.875H3.64286C3.47236 18.875 3.30885 18.8092 3.18829 18.6919C3.06773 18.5747 3 18.4158 3 18.25V12C3 11.8342 3.06773 11.6753 3.18829 11.5581C3.30885 11.4408 3.47236 11.375 3.64286 11.375H17.7857C17.9562 11.375 18.1197 11.4408 18.2403 11.5581C18.3608 11.6753 18.4286 11.8342 18.4286 12V18.25Z" fill="#FDB022"/>
<path d="M17.7856 18.875H5.57129V19.5H17.7856C17.9561 19.5 18.1196 19.4342 18.2401 19.3169C18.3607 19.1997 18.4284 19.0408 18.4284 18.875V18.25C18.4284 18.4158 18.3607 18.5747 18.2401 18.6919C18.1196 18.8092 17.9561 18.875 17.7856 18.875Z" fill="#FEDF89"/>
<path d="M7.39931 13.5237H9.12096C9.20372 13.5213 9.28406 13.551 9.34436 13.6061C9.37395 13.6333 9.39728 13.6662 9.4128 13.7028C9.42831 13.7393 9.43566 13.7787 9.43436 13.8182C9.43568 13.8564 9.42829 13.8944 9.41273 13.9294C9.39717 13.9645 9.37382 13.9957 9.34436 14.021C9.28269 14.0735 9.2029 14.1014 9.12096 14.0991H7.68177L7.72797 14.0139V14.9885L7.68779 14.9495H8.89034C8.97318 14.9473 9.05357 14.9769 9.11413 15.0319C9.14371 15.0591 9.16699 15.0921 9.18244 15.1288C9.19789 15.1654 9.20514 15.2048 9.20373 15.2444C9.20513 15.2825 9.19782 15.3204 9.18232 15.3554C9.16683 15.3904 9.14354 15.4216 9.11413 15.4467C9.0523 15.4992 8.97239 15.5271 8.89034 15.5249H7.70065L7.72637 15.4858V16.4924L7.68619 16.4475H9.12016C9.16154 16.4465 9.20271 16.4536 9.24112 16.4686C9.27954 16.4836 9.3144 16.5061 9.34355 16.5346C9.37192 16.5607 9.39453 16.5921 9.41 16.627C9.42548 16.6619 9.43349 16.6994 9.43355 16.7374C9.43473 16.7758 9.42729 16.814 9.41175 16.8494C9.39621 16.8847 9.37294 16.9163 9.34355 16.9421C9.28238 16.9956 9.20242 17.0242 9.12016 17.0221H7.39931C7.35786 17.023 7.31667 17.0157 7.2782 17.0007C7.23973 16.9856 7.20479 16.9632 7.17547 16.9347C7.14616 16.9062 7.12308 16.8722 7.10762 16.8348C7.09216 16.7974 7.08464 16.7574 7.08552 16.7171V13.8272C7.0847 13.787 7.09225 13.7469 7.10774 13.7096C7.12322 13.6722 7.14631 13.6383 7.17562 13.6099C7.20493 13.5814 7.23985 13.559 7.27829 13.544C7.31673 13.529 7.3579 13.5217 7.39931 13.5225V13.5237Z" fill="white"/>
<path d="M11.5671 13.5237C11.7942 13.5196 12.0192 13.5657 12.2252 13.6585C12.4146 13.7465 12.5806 13.8756 12.7106 14.0358C12.8454 14.2023 12.9465 14.3921 13.0087 14.5952C13.0769 14.8148 13.1108 15.0431 13.1092 15.2725C13.1132 15.5754 13.0519 15.8757 12.9292 16.1542C12.8185 16.4077 12.6377 16.6265 12.4068 16.7862C12.1792 16.9424 11.899 17.0206 11.5663 17.0206H10.3389C10.2974 17.0214 10.2563 17.014 10.2179 16.999C10.1794 16.9839 10.1445 16.9615 10.1153 16.933C10.086 16.9045 10.063 16.8705 10.0475 16.8331C10.0321 16.7958 10.0246 16.7558 10.0255 16.7155V13.8272C10.0246 13.787 10.0322 13.747 10.0476 13.7097C10.0631 13.6723 10.0862 13.6384 10.1154 13.61C10.1447 13.5815 10.1796 13.5591 10.218 13.5441C10.2564 13.5291 10.2975 13.5217 10.3389 13.5225L11.5671 13.5237ZM11.5177 16.4456C11.7339 16.4456 11.9104 16.3914 12.0472 16.2831C12.1873 16.1704 12.2915 16.0214 12.3478 15.8534C12.4128 15.6659 12.445 15.4692 12.443 15.2713C12.4437 15.1207 12.4256 14.9705 12.3892 14.8241C12.3566 14.6906 12.3 14.5638 12.222 14.4495C12.1456 14.337 12.0406 14.2455 11.9172 14.184C11.7939 14.1224 11.6563 14.0928 11.5177 14.0979H10.6165L10.6679 14.053V16.5003L10.637 16.4456H11.5177Z" fill="white"/>
<path d="M14.3428 16.7151C14.3436 16.7561 14.3353 16.7968 14.3183 16.8343C14.3014 16.8719 14.2763 16.9054 14.2448 16.9327C14.1841 16.9893 14.1031 17.0207 14.019 17.0202C13.977 17.0223 13.935 17.0158 13.8957 17.0013C13.8564 16.9868 13.8206 16.9644 13.7907 16.9358C13.7607 16.9071 13.7372 16.8726 13.7217 16.8347C13.7061 16.7967 13.6989 16.756 13.7004 16.7151V13.8272C13.6993 13.7867 13.707 13.7465 13.7229 13.7091C13.7388 13.6717 13.7626 13.6379 13.7928 13.61C13.8243 13.581 13.8614 13.5584 13.9019 13.5436C13.9425 13.5288 13.9857 13.522 14.029 13.5237C14.1109 13.5236 14.1895 13.555 14.2476 13.6112C14.2785 13.6387 14.3029 13.6723 14.3193 13.7098C14.3357 13.7472 14.3438 13.7877 14.3428 13.8284V16.7151Z" fill="white"/>
</g>
<defs>
<clipPath id="clip0_640_28429">
<rect width="18" height="20" fill="white" transform="translate(3 2)"/>
</clipPath>
</defs>
</svg>
