<svg width="16" height="16" viewBox="0 0 16 16" fill="none" xmlns="http://www.w3.org/2000/svg">
<g id="Icon/Outlined/Edit">
<g id="Vector">
<path fill-rule="evenodd" clip-rule="evenodd" d="M11.7925 0.947228C11.9878 0.751966 12.3043 0.751966 12.4996 0.947227L15.328 3.77565C15.4218 3.86942 15.4745 3.99659 15.4745 4.1292C15.4745 4.26181 15.4218 4.38899 15.328 4.48275L4.95713 14.8537C4.86336 14.9474 4.73618 15.0001 4.60356 15.0001L1.77522 15C1.49909 15 1.27524 14.7762 1.27523 14.5L1.27515 11.6717C1.27514 11.5391 1.32782 11.4119 1.42159 11.3181L11.7925 0.947228ZM12.146 2.00789L2.27515 11.8788L2.27522 14L4.39647 14.0001L14.2674 4.1292L12.146 2.00789Z" fill="#4D5761"/>
<path fill-rule="evenodd" clip-rule="evenodd" d="M8.96391 3.7756C9.15917 3.58033 9.47576 3.58033 9.67102 3.7756L12.4995 6.60403C12.6947 6.79929 12.6947 7.11587 12.4995 7.31114C12.3042 7.5064 11.9876 7.5064 11.7923 7.31114L8.96391 4.4827C8.76865 4.28744 8.76865 3.97086 8.96391 3.7756Z" fill="#4D5761"/>
</g>
</g>
</svg>
