<svg width="24" height="24" viewBox="0 0 24 24" fill="none" xmlns="http://www.w3.org/2000/svg">
<g id="Icon/Excel">
<g id="Group">
<path id="Vector" d="M21.369 18.8712H12.6246C12.2798 18.8712 12 18.5913 12 18.2466V5.75449C12 5.40971 12.2798 5.12988 12.6246 5.12988H21.369C21.7138 5.12988 21.9937 5.40971 21.9937 5.75449V18.2466C21.9937 18.5913 21.7138 18.8712 21.369 18.8712Z" fill="#E5E7EB"/>
<path id="Vector_2" d="M15.123 8.87811H12.6246C12.2798 8.87811 12 8.59829 12 8.25351C12 7.90873 12.2798 7.62891 12.6246 7.62891H15.123C15.4678 7.62891 15.7476 7.90873 15.7476 8.25351C15.7476 8.59829 15.4678 8.87811 15.123 8.87811ZM15.123 11.3765H12.6246C12.2798 11.3765 12 11.0967 12 10.7519C12 10.4071 12.2798 10.1273 12.6246 10.1273H15.123C15.4678 10.1273 15.7476 10.4071 15.7476 10.7519C15.7476 11.0967 15.4678 11.3765 15.123 11.3765ZM15.123 13.8749H12.6246C12.2798 13.8749 12 13.5951 12 13.2503C12 12.9056 12.2798 12.6257 12.6246 12.6257H15.123C15.4678 12.6257 15.7476 12.9056 15.7476 13.2503C15.7476 13.5951 15.4678 13.8749 15.123 13.8749ZM15.123 16.3734H12.6246C12.2798 16.3734 12 16.0935 12 15.7487C12 15.404 12.2798 15.1241 12.6246 15.1241H15.123C15.4678 15.1241 15.7476 15.404 15.7476 15.7487C15.7476 16.0935 15.4678 16.3734 15.123 16.3734ZM18.8706 8.87811H17.6214C17.2766 8.87811 16.9968 8.59829 16.9968 8.25351C16.9968 7.90873 17.2766 7.62891 17.6214 7.62891H18.8706C19.2154 7.62891 19.4952 7.90873 19.4952 8.25351C19.4952 8.59829 19.2154 8.87811 18.8706 8.87811ZM18.8706 11.3765H17.6214C17.2766 11.3765 16.9968 11.0967 16.9968 10.7519C16.9968 10.4071 17.2766 10.1273 17.6214 10.1273H18.8706C19.2154 10.1273 19.4952 10.4071 19.4952 10.7519C19.4952 11.0967 19.2154 11.3765 18.8706 11.3765ZM18.8706 13.8749H17.6214C17.2766 13.8749 16.9968 13.5951 16.9968 13.2503C16.9968 12.9056 17.2766 12.6257 17.6214 12.6257H18.8706C19.2154 12.6257 19.4952 12.9056 19.4952 13.2503C19.4952 13.5951 19.2154 13.8749 18.8706 13.8749ZM18.8706 16.3734H17.6214C17.2766 16.3734 16.9968 16.0935 16.9968 15.7487C16.9968 15.404 17.2766 15.1241 17.6214 15.1241H18.8706C19.2154 15.1241 19.4952 15.404 19.4952 15.7487C19.4952 16.0935 19.2154 16.3734 18.8706 16.3734Z" fill="#388E3C"/>
<path id="Vector_3" d="M13.0231 2.77536C12.8807 2.65669 12.6896 2.60547 12.5097 2.64294L2.51602 4.51675C2.37274 4.54323 2.24327 4.6191 2.15015 4.73117C2.05703 4.84324 2.00614 4.98441 2.00635 5.13011V18.8714C2.00635 19.1712 2.21996 19.4298 2.51602 19.4847L12.5097 21.3586C12.5472 21.3661 12.5859 21.3698 12.6246 21.3698C12.7695 21.3698 12.9107 21.3198 13.0231 21.2261C13.0938 21.1675 13.1508 21.094 13.1898 21.0109C13.2289 20.9278 13.2492 20.8371 13.2492 20.7452V3.2563C13.2492 3.07017 13.1668 2.89403 13.0231 2.77536Z" fill="#2E7D32"/>
<path id="Vector_4" d="M10.5961 14.0883L8.62108 11.831L10.6186 9.26266C10.8309 8.99033 10.781 8.59808 10.5099 8.38572C10.2388 8.17335 9.84655 8.22332 9.63294 8.4944L7.78286 10.8729L6.22385 9.09152C5.99525 8.82918 5.6005 8.80545 5.34316 9.0328C5.08333 9.26016 5.05709 9.65491 5.28445 9.91349L7.00211 11.8772L5.26072 14.1158C5.04835 14.3882 5.09832 14.7804 5.3694 14.9928C5.47958 15.0779 5.61491 15.124 5.75415 15.1239C5.94028 15.1239 6.12392 15.0415 6.24759 14.8828L7.84033 12.8341L9.65667 14.9091C9.7149 14.9766 9.78701 15.0307 9.86807 15.0678C9.94913 15.1049 10.0372 15.124 10.1264 15.1239C10.2725 15.1239 10.4187 15.0727 10.5374 14.969C10.7972 14.7417 10.8234 14.3469 10.5961 14.0883Z" fill="#FAFAFA"/>
</g>
</g>
</svg>
