<svg width="25" height="24" viewBox="0 0 25 24" fill="none" xmlns="http://www.w3.org/2000/svg">
<g id="Icon/Eyes">
<g id="Vector">
<path fill-rule="evenodd" clip-rule="evenodd" d="M5.1544 8.36693C6.8942 6.87624 9.31192 5.75 12.0063 5.75C14.7006 5.75 17.1183 6.8754 18.8582 8.36578C20.5687 9.83095 21.7563 11.7704 21.7563 13.5C21.7563 15.2296 20.5687 17.169 18.8582 18.6342C17.1183 20.1246 14.7006 21.25 12.0063 21.25C9.31192 21.25 6.8942 20.1238 5.1544 18.6331C3.44412 17.1677 2.25635 15.2282 2.25635 13.5C2.25635 11.7718 3.44412 9.83234 5.1544 8.36693ZM6.13038 9.506C4.5833 10.8316 3.75635 12.3921 3.75635 13.5C3.75635 14.6079 4.5833 16.1684 6.13038 17.494C7.64795 18.7943 9.73022 19.75 12.0063 19.75C14.2826 19.75 16.3649 18.7949 17.8824 17.495C19.4293 16.1699 20.2563 14.6094 20.2563 13.5C20.2563 12.3906 19.4293 10.83 17.8824 9.50497C16.3649 8.2051 14.2826 7.25 12.0063 7.25C9.73022 7.25 7.64795 8.20571 6.13038 9.506Z" fill="#6C737F"/>
<path fill-rule="evenodd" clip-rule="evenodd" d="M8.25635 13.5C8.25635 11.4289 9.93528 9.75 12.0063 9.75C14.0774 9.75 15.7563 11.4289 15.7563 13.5C15.7563 15.5711 14.0774 17.25 12.0063 17.25C9.93528 17.25 8.25635 15.5711 8.25635 13.5ZM12.0063 11.25C10.7637 11.25 9.75635 12.2574 9.75635 13.5C9.75635 14.7426 10.7637 15.75 12.0063 15.75C13.249 15.75 14.2563 14.7426 14.2563 13.5C14.2563 12.2574 13.249 11.25 12.0063 11.25Z" fill="#6C737F"/>
<path fill-rule="evenodd" clip-rule="evenodd" d="M6.20135 5.02344C6.53803 4.78215 7.00656 4.85948 7.24785 5.19616L8.5451 7.00626C8.78639 7.34294 8.70906 7.81147 8.37238 8.05276C8.0357 8.29405 7.56717 8.21672 7.32588 7.88004L6.02863 6.06994C5.78734 5.73327 5.86467 5.26473 6.20135 5.02344Z" fill="#6C737F"/>
<path fill-rule="evenodd" clip-rule="evenodd" d="M18.2557 5.24562C18.5924 5.48691 18.6697 5.95545 18.4284 6.29212L17.1311 8.10222C16.8898 8.4389 16.4213 8.51622 16.0846 8.27492C15.748 8.03363 15.6706 7.56509 15.9119 7.22842L17.2092 5.41832C17.4505 5.08164 17.9191 5.00432 18.2557 5.24562Z" fill="#6C737F"/>
<path fill-rule="evenodd" clip-rule="evenodd" d="M12.0107 2.75C12.425 2.75 12.7607 3.08579 12.7607 3.5V6.50001C12.7607 6.91422 12.425 7.25001 12.0107 7.25001C11.5965 7.25001 11.2607 6.91422 11.2607 6.50001V3.5C11.2607 3.08579 11.5965 2.75 12.0107 2.75Z" fill="#6C737F"/>
</g>
</g>
</svg>
