<svg width="24" height="24" viewBox="0 0 24 24" fill="none" xmlns="http://www.w3.org/2000/svg">
<g id="Icon/Arrows/Full-screen-two">
<g id="Vector">
<path d="M14.3077 2.76923C14.3077 2.3444 14.6521 2 15.0769 2H21.2308C21.6556 2 22 2.3444 22 2.76923V8.92308C22 9.34791 21.6556 9.69231 21.2308 9.69231C20.8059 9.69231 20.4615 9.34791 20.4615 8.92308V3.53846H15.0769C14.6521 3.53846 14.3077 3.19407 14.3077 2.76923Z" fill="#6C737F"/>
<path d="M2 2.76923C2 2.3444 2.3444 2 2.76923 2H8.92308C9.34791 2 9.69231 2.3444 9.69231 2.76923C9.69231 3.19407 9.34791 3.53846 8.92308 3.53846H3.53846V8.92308C3.53846 9.34791 3.19407 9.69231 2.76923 9.69231C2.3444 9.69231 2 9.34791 2 8.92308V2.76923Z" fill="#6C737F"/>
<path d="M21.2308 14.3077C21.6556 14.3077 22 14.6521 22 15.0769V21.2308C22 21.6556 21.6556 22 21.2308 22H15.0769C14.6521 22 14.3077 21.6556 14.3077 21.2308C14.3077 20.8059 14.6521 20.4615 15.0769 20.4615H20.4615V15.0769C20.4615 14.6521 20.8059 14.3077 21.2308 14.3077Z" fill="#6C737F"/>
<path d="M2.76923 14.3077C3.19407 14.3077 3.53846 14.6521 3.53846 15.0769V20.4615H8.92308C9.34791 20.4615 9.69231 20.8059 9.69231 21.2308C9.69231 21.6556 9.34791 22 8.92308 22H2.76923C2.3444 22 2 21.6556 2 21.2308V15.0769C2 14.6521 2.3444 14.3077 2.76923 14.3077Z" fill="#6C737F"/>
<path d="M21.7747 2.2253C22.0751 2.52571 22.0751 3.01276 21.7747 3.31316L15.108 9.97983C14.8076 10.2802 14.3206 10.2802 14.0202 9.97983C13.7198 9.67942 13.7198 9.19237 14.0202 8.89197L20.6868 2.2253C20.9872 1.9249 21.4743 1.9249 21.7747 2.2253Z" fill="#6C737F"/>
<path d="M9.97983 14.0202C10.2802 14.3206 10.2802 14.8076 9.97983 15.108L3.31316 21.7747C3.01276 22.0751 2.52571 22.0751 2.2253 21.7747C1.9249 21.4743 1.9249 20.9872 2.2253 20.6868L8.89197 14.0202C9.19237 13.7198 9.67942 13.7198 9.97983 14.0202Z" fill="#6C737F"/>
</g>
</g>
</svg>
