<svg width="24" height="24" viewBox="0 0 24 24" fill="none" xmlns="http://www.w3.org/2000/svg">
<path d="M12.5 11L4 9L21 3L15.5 19.5L12.5 11Z" fill="#2E90FA"/>
<path d="M21.7898 2.1971C21.9822 2.38446 22.0495 2.66593 21.9626 2.92006L15.9406 20.5298C15.841 20.8212 15.5614 21.0123 15.2536 20.9994C14.9459 20.9864 14.6834 20.7725 14.6086 20.4737L12.3966 11.6388L3.56308 9.92949C3.2572 9.8703 3.02806 9.61482 3.00238 9.30433C2.9767 8.99383 3.16075 8.70418 3.45274 8.59554L21.0625 2.04365C21.3142 1.94999 21.5973 2.00973 21.7898 2.1971ZM6.25841 9.03501L13.0955 10.358C13.3607 10.4093 13.5721 10.6096 13.6377 10.8716L15.3861 17.8549L20.1725 3.85811L6.25841 9.03501Z" fill="#2E90FA"/>
<path d="M15.797 8.203C16.0677 8.47367 16.0677 8.91252 15.797 9.18319L13.1832 11.797C12.9125 12.0677 12.4737 12.0677 12.203 11.797C11.9323 11.5263 11.9323 11.0875 12.203 10.8168L14.8168 8.203C15.0875 7.93233 15.5263 7.93233 15.797 8.203Z" fill="#84CAFF"/>
</svg>
