<svg width="24" height="24" viewBox="0 0 24 24" fill="none" xmlns="http://www.w3.org/2000/svg">
<g id="Active=No">
<g id="Vector">
<path d="M21.7898 3.1971C21.9822 3.38446 22.0495 3.66593 21.9626 3.92006L15.9406 21.5298C15.841 21.8212 15.5614 22.0123 15.2536 21.9994C14.9459 21.9864 14.6834 21.7725 14.6086 21.4737L12.3966 12.6388L3.56308 10.9295C3.2572 10.8703 3.02806 10.6148 3.00238 10.3043C2.9767 9.99383 3.16075 9.70418 3.45274 9.59554L21.0625 3.04365C21.3142 2.94999 21.5973 3.00973 21.7898 3.1971ZM6.25841 10.035L13.0955 11.358C13.3607 11.4093 13.5721 11.6096 13.6377 11.8716L15.3861 18.8549L20.1725 4.85811L6.25841 10.035Z" fill="#6C737F"/>
<path d="M16.0802 8.92747C16.3517 9.19893 16.3517 9.63906 16.0802 9.91052L13.4588 12.532C13.1873 12.8034 12.7472 12.8034 12.4757 12.532C12.2043 12.2605 12.2043 11.8204 12.4757 11.5489L15.0972 8.92747C15.3686 8.65601 15.8088 8.65601 16.0802 8.92747Z" fill="#6C737F"/>
</g>
</g>
</svg>
