<svg width="24" height="24" viewBox="0 0 24 24" fill="none" xmlns="http://www.w3.org/2000/svg">
<g id="Icon/Location">
<path id="Vector" d="M12 1.25C9.37663 1.25 7.25 3.37665 7.25 6C7.25 8.36816 8.983 10.3315 11.25 10.6911V19C11.25 19.4142 11.5858 19.75 12 19.75C12.4142 19.75 12.75 19.4142 12.75 19V10.6911C15.017 10.3315 16.75 8.36816 16.75 6C16.75 3.37665 14.6234 1.25 12 1.25ZM6 15.25C5.74924 15.25 5.51506 15.3753 5.37596 15.584L1.37596 21.584C1.22254 21.8141 1.20823 22.11 1.33875 22.3539C1.46926 22.5978 1.7234 22.75 2 22.75H22C22.2766 22.75 22.5307 22.5978 22.6613 22.3539C22.7918 22.11 22.7775 21.8141 22.624 21.584L18.624 15.584C18.4849 15.3753 18.2508 15.25 18 15.25H16C15.5858 15.25 15.25 15.5858 15.25 16C15.25 16.4142 15.5858 16.75 16 16.75H17.5986L20.5986 21.25H3.40139L6.40139 16.75H8C8.41421 16.75 8.75 16.4142 8.75 16C8.75 15.5858 8.41421 15.25 8 15.25H6Z" fill="#6C737F"/>
</g>
</svg>
