<svg width="25" height="24" viewBox="0 0 25 24" fill="none" xmlns="http://www.w3.org/2000/svg">
<g id="Icon/Lock">
<g id="Vector">
<path d="M4.62173 11.7674C4.49428 11.7674 4.39096 11.8716 4.39096 12V20.3721C4.39096 20.5005 4.49428 20.6047 4.62173 20.6047H19.391C19.5184 20.6047 19.6217 20.5005 19.6217 20.3721V12C19.6217 11.8716 19.5184 11.7674 19.391 11.7674H4.62173ZM3.00635 12C3.00635 11.1009 3.72958 10.3721 4.62173 10.3721H19.391C20.2831 10.3721 21.0063 11.1009 21.0063 12V20.3721C21.0063 21.2712 20.2831 22 19.391 22H4.62173C3.72958 22 3.00635 21.2712 3.00635 20.3721V12Z" fill="#6C737F"/>
<path d="M12.0063 3.39535C9.83971 3.39535 8.08327 5.16539 8.08327 7.34884V11.0698C8.08327 11.4551 7.77331 11.7674 7.39096 11.7674C7.00861 11.7674 6.69866 11.4551 6.69866 11.0698V7.34884C6.69866 4.39475 9.07501 2 12.0063 2C14.9377 2 17.314 4.39475 17.314 7.34884V11.0698C17.314 11.4551 17.0041 11.7674 16.6217 11.7674C16.2394 11.7674 15.9294 11.4551 15.9294 11.0698V7.34884C15.9294 5.16539 14.173 3.39535 12.0063 3.39535Z" fill="#6C737F"/>
<path d="M12.0063 14.093C12.3887 14.093 12.6987 14.4054 12.6987 14.7907V17.5814C12.6987 17.9667 12.3887 18.2791 12.0063 18.2791C11.624 18.2791 11.314 17.9667 11.314 17.5814V14.7907C11.314 14.4054 11.624 14.093 12.0063 14.093Z" fill="#6C737F"/>
</g>
</g>
</svg>
