<svg width="22" height="22" viewBox="0 0 22 22" fill="none" xmlns="http://www.w3.org/2000/svg">
<g id="Capa_1" clip-path="url(#clip0_75_961)">
<path id="Vector" d="M0.644531 14.1797H13.5352C13.7061 14.1797 13.87 14.1118 13.9909 13.9909C14.1118 13.87 14.1797 13.7061 14.1797 13.5352V5.80078C14.1797 5.62984 14.1118 5.4659 13.9909 5.34503C13.87 5.22416 13.7061 5.15625 13.5352 5.15625H11.1521L7.73438 2.87891V0.644531C7.73438 0.473591 7.66647 0.309652 7.5456 0.188779C7.42472 0.0679058 7.26078 0 7.08984 0C6.9189 0 6.75496 0.0679058 6.63409 0.188779C6.51322 0.309652 6.44531 0.473591 6.44531 0.644531V2.87891L3.02758 5.15625H0.644531C0.473591 5.15625 0.309652 5.22416 0.188779 5.34503C0.0679058 5.4659 0 5.62984 0 5.80078L0 13.5352C0 13.7061 0.0679058 13.87 0.188779 13.9909C0.309652 14.1118 0.473591 14.1797 0.644531 14.1797ZM7.08984 3.99609L8.82836 5.15625H5.35133L7.08984 3.99609ZM1.28906 6.44531H12.8906V12.8906H1.28906V6.44531Z" fill="#6C737F"/>
<path id="Vector_2" d="M20.7109 14.2901V12.2461C20.7104 11.7334 20.5065 11.242 20.144 10.8795C19.7815 10.517 19.29 10.3131 18.7773 10.3125H16.8438V8.37891C16.8438 8.20797 16.7758 8.04403 16.655 7.92315C16.5341 7.80228 16.3702 7.73438 16.1992 7.73438C16.0283 7.73438 15.8643 7.80228 15.7435 7.92315C15.6226 8.04403 15.5547 8.20797 15.5547 8.37891V15.4688H0.644531C0.473591 15.4688 0.309652 15.5367 0.188779 15.6575C0.0679058 15.7784 0 15.9423 0 16.1133L0 20.0664C0 20.2373 0.0679058 20.4013 0.188779 20.5222C0.309652 20.643 0.473591 20.7109 0.644531 20.7109H2.68898C2.79499 21.0101 2.97303 21.2787 3.20739 21.4928C3.44174 21.7069 3.72521 21.86 4.03275 21.9386C4.34029 22.0172 4.66246 22.0189 4.97081 21.9435C5.27916 21.8681 5.5642 21.7179 5.80078 21.5063C6.03736 21.7179 6.3224 21.8681 6.63075 21.9435C6.9391 22.0189 7.26127 22.0172 7.56881 21.9386C7.87636 21.86 8.15982 21.7069 8.39417 21.4928C8.62853 21.2787 8.80657 21.0101 8.91258 20.7109H15.6655C15.7989 21.0877 16.0458 21.4139 16.3723 21.6446C16.6987 21.8753 17.0886 21.9992 17.4883 21.9992C17.888 21.9992 18.2779 21.8753 18.6043 21.6446C18.9307 21.4139 19.1776 21.0877 19.311 20.7109H21.3555C21.5264 20.7109 21.6903 20.643 21.8112 20.5222C21.9321 20.4013 22 20.2373 22 20.0664V16.1133C21.9995 15.7135 21.8754 15.3237 21.6446 14.9973C21.4138 14.6709 21.0877 14.4238 20.7109 14.2901ZM19.4219 12.2461V14.1797H16.8438V11.6016H18.7773C18.9483 11.6016 19.1122 11.6695 19.2331 11.7903C19.354 11.9112 19.4219 12.0752 19.4219 12.2461ZM1.28906 16.7578H15.5547V19.4219H8.91258C8.80657 19.1227 8.62853 18.8542 8.39417 18.6401C8.15982 18.426 7.87636 18.2728 7.56881 18.1942C7.26127 18.1156 6.9391 18.1139 6.63075 18.1893C6.3224 18.2647 6.03736 18.4149 5.80078 18.6265C5.5642 18.4149 5.27916 18.2647 4.97081 18.1893C4.66246 18.1139 4.34029 18.1156 4.03275 18.1942C3.72521 18.2728 3.44174 18.426 3.20739 18.6401C2.97303 18.8542 2.79499 19.1227 2.68898 19.4219H1.28906V16.7578ZM4.51172 20.7109C4.38424 20.7109 4.25963 20.6731 4.15364 20.6023C4.04764 20.5315 3.96503 20.4308 3.91625 20.3131C3.86747 20.1953 3.8547 20.0657 3.87957 19.9407C3.90444 19.8156 3.96583 19.7008 4.05597 19.6107C4.14611 19.5205 4.26095 19.4591 4.38598 19.4343C4.511 19.4094 4.6406 19.4222 4.75837 19.4709C4.87614 19.5197 4.9768 19.6023 5.04763 19.7083C5.11845 19.8143 5.15625 19.9389 5.15625 20.0664C5.15625 20.2373 5.08834 20.4013 4.96747 20.5222C4.8466 20.643 4.68266 20.7109 4.51172 20.7109ZM7.08984 20.7109C6.96237 20.7109 6.83775 20.6731 6.73176 20.6023C6.62577 20.5315 6.54316 20.4308 6.49437 20.3131C6.44559 20.1953 6.43283 20.0657 6.4577 19.9407C6.48257 19.8156 6.54395 19.7008 6.63409 19.6107C6.72423 19.5205 6.83907 19.4591 6.9641 19.4343C7.08913 19.4094 7.21872 19.4222 7.33649 19.4709C7.45427 19.5197 7.55493 19.6023 7.62575 19.7083C7.69657 19.8143 7.73438 19.9389 7.73438 20.0664C7.73438 20.2373 7.66647 20.4013 7.5456 20.5222C7.42472 20.643 7.26078 20.7109 7.08984 20.7109ZM17.4883 20.7109C17.3608 20.7109 17.2362 20.6731 17.1302 20.6023C17.0242 20.5315 16.9416 20.4308 16.8928 20.3131C16.844 20.1953 16.8313 20.0657 16.8561 19.9407C16.881 19.8156 16.9424 19.7008 17.0325 19.6107C17.1227 19.5205 17.2375 19.4591 17.3625 19.4343C17.4876 19.4094 17.6172 19.4222 17.7349 19.4709C17.8527 19.5197 17.9534 19.6023 18.0242 19.7083C18.095 19.8143 18.1328 19.9389 18.1328 20.0664C18.1328 20.2373 18.0649 20.4013 17.944 20.5222C17.8232 20.643 17.6592 20.7109 17.4883 20.7109ZM20.7109 19.4219H19.311C19.14 18.9385 18.784 18.5428 18.3214 18.3219C17.8587 18.1009 17.3272 18.0728 16.8438 18.2437V15.4688H20.0664C20.2373 15.4688 20.4013 15.5367 20.5222 15.6575C20.643 15.7784 20.7109 15.9423 20.7109 16.1133V19.4219Z" fill="#6C737F"/>
<path id="Vector_3" d="M4.64453 7.73438C4.47359 7.73438 4.30965 7.80228 4.18878 7.92315C4.06791 8.04403 4 8.20797 4 8.37891V10.957C4 11.128 4.06791 11.2919 4.18878 11.4128C4.30965 11.5337 4.47359 11.6016 4.64453 11.6016C4.81547 11.6016 4.97941 11.5337 5.10028 11.4128C5.22116 11.2919 5.28906 11.128 5.28906 10.957V8.37891C5.28906 8.20797 5.22116 8.04403 5.10028 7.92315C4.97941 7.80228 4.81547 7.73438 4.64453 7.73438Z" fill="#6C737F"/>
<path id="Vector_4" d="M7.22266 7.73438C7.05172 7.73438 6.88778 7.80228 6.7669 7.92315C6.64603 8.04403 6.57812 8.20797 6.57812 8.37891V10.957C6.57812 11.128 6.64603 11.2919 6.7669 11.4128C6.88778 11.5337 7.05172 11.6016 7.22266 11.6016C7.3936 11.6016 7.55754 11.5337 7.67841 11.4128C7.79928 11.2919 7.86719 11.128 7.86719 10.957V8.37891C7.86719 8.20797 7.79928 8.04403 7.67841 7.92315C7.55754 7.80228 7.3936 7.73438 7.22266 7.73438Z" fill="#6C737F"/>
<path id="Vector_5" d="M9.80078 7.73438C9.62984 7.73438 9.4659 7.80228 9.34503 7.92315C9.22416 8.04403 9.15625 8.20797 9.15625 8.37891V10.957C9.15625 11.128 9.22416 11.2919 9.34503 11.4128C9.4659 11.5337 9.62984 11.6016 9.80078 11.6016C9.97172 11.6016 10.1357 11.5337 10.2565 11.4128C10.3774 11.2919 10.4453 11.128 10.4453 10.957V8.37891C10.4453 8.20797 10.3774 8.04403 10.2565 7.92315C10.1357 7.80228 9.97172 7.73438 9.80078 7.73438Z" fill="#6C737F"/>
</g>
<defs>
<clipPath id="clip0_75_961">
<rect width="22" height="22" fill="white"/>
</clipPath>
</defs>
</svg>
