<svg width="24" height="24" viewBox="0 0 24 24" fill="none" xmlns="http://www.w3.org/2000/svg">
<g id="Icon/Mail">
<path id="Vector" fill-rule="evenodd" clip-rule="evenodd" d="M12.4257 1.38246C12.1694 1.20585 11.8307 1.20585 11.5745 1.38246L1.57446 8.27441C1.34738 8.43091 1.2334 8.69025 1.25195 8.94677C1.2507 8.9644 1.25007 8.98215 1.25007 9V19.9091C1.25007 20.863 1.97348 21.75 3.00007 21.75H21.0001C22.0267 21.75 22.7501 20.863 22.7501 19.9091V9C22.7501 8.98215 22.7494 8.9644 22.7482 8.94677C22.7667 8.69025 22.6528 8.43091 22.4257 8.27441L12.4257 1.38246ZM20.7326 8.92932L12.0001 2.91087L3.2675 8.92932L12.0001 14.6055L20.7326 8.92932Z" fill="#6C737F"/>
</g>
</svg>
