<svg width="24" height="24" viewBox="0 0 24 24" fill="none" xmlns="http://www.w3.org/2000/svg">
<g id="Icon/Phone">
<path id="Vector" d="M2.3999 3.60039C2.3999 3.28213 2.52633 2.97691 2.75137 2.75186C2.97642 2.52682 3.28164 2.40039 3.5999 2.40039H6.1835C6.46755 2.40052 6.74234 2.50141 6.959 2.6851C7.17565 2.8688 7.32012 3.12339 7.3667 3.40359L8.2547 8.72559C8.29713 8.97905 8.25707 9.23944 8.14042 9.46843C8.02377 9.69741 7.83668 9.8829 7.6067 9.99759L5.7491 10.9252C6.41523 12.576 7.4073 14.0755 8.66603 15.3343C9.92476 16.593 11.4243 17.5851 13.0751 18.2512L14.0039 16.3936C14.1185 16.1638 14.3038 15.9769 14.5326 15.8603C14.7613 15.7436 15.0214 15.7034 15.2747 15.7456L20.5967 16.6336C20.8769 16.6802 21.1315 16.8246 21.3152 17.0413C21.4989 17.258 21.5998 17.5327 21.5999 17.8168V20.4004C21.5999 20.7187 21.4735 21.0239 21.2484 21.2489C21.0234 21.474 20.7182 21.6004 20.3999 21.6004H17.9999C9.3839 21.6004 2.3999 14.6164 2.3999 6.00039V3.60039Z" fill="#6C737F"/>
</g>
</svg>
