<svg width="16" height="16" viewBox="0 0 16 16" fill="none" xmlns="http://www.w3.org/2000/svg">
<g id="Icon/Outlined/Plus">
<g id="Vector">
<path fill-rule="evenodd" clip-rule="evenodd" d="M7.85419 2.6665C8.13034 2.66687 8.3539 2.89102 8.35354 3.16716L8.34131 12.5005C8.34094 12.7766 8.11679 13.0002 7.84065 12.9998C7.56451 12.9995 7.34094 12.7753 7.34131 12.4992L7.35354 3.16585C7.3539 2.88971 7.57805 2.66614 7.85419 2.6665Z" fill="white"/>
<path fill-rule="evenodd" clip-rule="evenodd" d="M2.66666 7.83317C2.66666 7.55703 2.89052 7.33317 3.16666 7.33317H12.5C12.7761 7.33317 13 7.55703 13 7.83317C13 8.10931 12.7761 8.33317 12.5 8.33317H3.16666C2.89052 8.33317 2.66666 8.10931 2.66666 7.83317Z" fill="white"/>
</g>
</g>
</svg>
