<svg width="24" height="24" viewBox="0 0 24 24" fill="none" xmlns="http://www.w3.org/2000/svg">
<path d="M7 2C6.3125 2 5.75 2.5625 5.75 3.25V20.75C5.75 21.4375 6.3125 22 7 22H19.5C20.1875 22 20.75 21.4375 20.75 20.75V7L15.75 2H7Z" fill="#E5E7EB"/>
<path d="M17 7H20.75L15.75 2V5.75C15.75 6.4375 16.3125 7 17 7Z" fill="#9DA4AE"/>
<path d="M20.75 10.75L17 7H20.75V10.75Z" fill="#D2D6DB"/>
<path d="M18 18.25C18 18.5938 17.7188 18.875 17.375 18.875H3.625C3.28125 18.875 3 18.5938 3 18.25V12C3 11.6562 3.28125 11.375 3.625 11.375H17.375C17.7188 11.375 18 11.6562 18 12V18.25Z" fill="#FD853A"/>
<path d="M5.55263 13.0169C5.73887 13.0169 5.91258 13.0734 6.07375 13.1864C6.23851 13.2994 6.37103 13.452 6.47131 13.6441C6.5716 13.8362 6.62174 14.0508 6.62174 14.2881C6.62174 14.5217 6.5716 14.7345 6.47131 14.9266C6.37103 15.1186 6.23851 15.2731 6.07375 15.3898C5.91258 15.5028 5.73887 15.5593 5.55263 15.5593H4.5641L4.61783 15.4576V16.6271C4.61783 16.725 4.58918 16.8079 4.53187 16.8757C4.47456 16.9397 4.39935 16.9718 4.30623 16.9718C4.21669 16.9718 4.14326 16.9397 4.08596 16.8757C4.02865 16.8079 4 16.725 4 16.6271V13.3616C4 13.2637 4.03044 13.1827 4.09133 13.1186C4.1558 13.0508 4.2346 13.0169 4.32772 13.0169H5.55263ZM5.55263 14.9153C5.62068 14.9153 5.68694 14.8851 5.75141 14.8249C5.81588 14.7646 5.8696 14.6874 5.91258 14.5932C5.95556 14.4953 5.97705 14.3936 5.97705 14.2881C5.97705 14.1789 5.95556 14.0772 5.91258 13.9831C5.8696 13.8889 5.81588 13.8136 5.75141 13.7571C5.68694 13.6968 5.62068 13.6667 5.55263 13.6667H4.55336L4.61783 13.565V15.0056L4.55873 14.9153H5.55263Z" fill="white"/>
<path d="M8.51036 16.9718C8.41007 16.9718 8.32769 16.9397 8.26323 16.8757C8.19876 16.8079 8.16652 16.725 8.16652 16.6271V13.3503H8.86494V16.6271C8.86494 16.725 8.83091 16.8079 8.76286 16.8757C8.69839 16.9397 8.61422 16.9718 8.51036 16.9718ZM7.32305 13.6667C7.22993 13.6667 7.15113 13.6365 7.08667 13.5763C7.02578 13.516 6.99533 13.4369 6.99533 13.339C6.99533 13.2411 7.02578 13.1638 7.08667 13.1073C7.15113 13.0471 7.22993 13.0169 7.32305 13.0169H9.70841C9.80153 13.0169 9.87853 13.0471 9.93942 13.1073C10.0039 13.1676 10.0361 13.2467 10.0361 13.3446C10.0361 13.4426 10.0039 13.5217 9.93942 13.5819C9.87853 13.6384 9.80153 13.6667 9.70841 13.6667H7.32305Z" fill="white"/>
<path d="M12.036 16.9718C11.9357 16.9718 11.8533 16.9397 11.7889 16.8757C11.7244 16.8079 11.6922 16.725 11.6922 16.6271V13.3503H12.3906V16.6271C12.3906 16.725 12.3566 16.8079 12.2885 16.8757C12.224 16.9397 12.1399 16.9718 12.036 16.9718ZM10.8487 13.6667C10.7556 13.6667 10.6768 13.6365 10.6123 13.5763C10.5514 13.516 10.521 13.4369 10.521 13.339C10.521 13.2411 10.5514 13.1638 10.6123 13.1073C10.6768 13.0471 10.7556 13.0169 10.8487 13.0169H13.2341C13.3272 13.0169 13.4042 13.0471 13.4651 13.1073C13.5295 13.1676 13.5618 13.2467 13.5618 13.3446C13.5618 13.4426 13.5295 13.5217 13.4651 13.5819C13.4042 13.6384 13.3272 13.6667 13.2341 13.6667H10.8487Z" fill="white"/>
<path d="M16.6991 13.0113C16.7815 13.0113 16.8514 13.0452 16.9087 13.113C16.9696 13.1808 17 13.2524 17 13.3277C17 13.3992 16.9767 13.467 16.9302 13.5311L15.8503 15.0282L15.485 14.5028L16.4359 13.1751C16.5111 13.0659 16.5989 13.0113 16.6991 13.0113ZM14.303 13C14.4069 13 14.4947 13.049 14.5663 13.1469L16.9302 16.452C16.9731 16.5122 16.9946 16.5819 16.9946 16.661C16.9946 16.7665 16.9588 16.8493 16.8872 16.9096C16.8155 16.9699 16.7439 17 16.6723 17C16.5684 17 16.4807 16.951 16.409 16.8531L14.0452 13.548C13.9986 13.4878 13.9753 13.42 13.9753 13.3446C13.9753 13.2467 14.0094 13.1657 14.0774 13.1017C14.149 13.0339 14.2242 13 14.303 13ZM14.2547 17C14.1759 17 14.1078 16.9699 14.0505 16.9096C13.9932 16.8456 13.9646 16.7759 13.9646 16.7006C13.9646 16.6177 13.9914 16.5405 14.0452 16.4689L15.1358 14.9153L15.4903 15.4633L14.5233 16.8418C14.4517 16.9473 14.3621 17 14.2547 17Z" fill="white"/>
<path d="M17.625 18.875H5.75V19.5H17.625C17.9688 19.5 18.25 19.2188 18.25 18.875V18.25C18.25 18.5938 17.9688 18.875 17.625 18.875Z" fill="#D2D6DB"/>
</svg>
