<svg width="16" height="16" viewBox="0 0 16 16" fill="none" xmlns="http://www.w3.org/2000/svg">
<g id="Icon/Outlined/Refresh">
<g id="Vector">
<path d="M14 2.16667C14.2761 2.16667 14.5 2.39052 14.5 2.66667V8C14.5 8.27614 14.2761 8.5 14 8.5C13.7239 8.5 13.5 8.27614 13.5 8V2.66667C13.5 2.39052 13.7239 2.16667 14 2.16667Z" fill="#4D5761"/>
<path d="M2 7.5C2.27614 7.5 2.5 7.72386 2.5 8V13.3333C2.5 13.6095 2.27614 13.8333 2 13.8333C1.72386 13.8333 1.5 13.6095 1.5 13.3333V8C1.5 7.72386 1.72386 7.5 2 7.5Z" fill="#4D5761"/>
<path d="M2 7.5C2.27614 7.5 2.5 7.72386 2.5 8C2.5 11.0376 4.96244 13.5 8 13.5C9.48385 13.5 10.8296 12.913 11.8194 11.9576C12.0181 11.7658 12.3346 11.7714 12.5264 11.97C12.7182 12.1687 12.7126 12.4853 12.5139 12.677C11.3452 13.8052 9.75321 14.5 8 14.5C4.41016 14.5 1.5 11.5898 1.5 8C1.5 7.72386 1.72386 7.5 2 7.5Z" fill="#4D5761"/>
<path d="M3.3232 3.48607C4.50469 2.26216 6.16388 1.5 8.00023 1.5C11.5901 1.5 14.5 4.41016 14.5 8C14.5 8.27614 14.2761 8.5 14 8.5C13.7239 8.5 13.5 8.27614 13.5 8C13.5 4.96244 11.0378 2.5 8.00023 2.5C6.44625 2.5 5.04351 3.14381 4.04267 4.1806C3.85088 4.37927 3.53434 4.38485 3.33567 4.19307C3.13699 4.00128 3.13141 3.68474 3.3232 3.48607Z" fill="#4D5761"/>
</g>
</g>
</svg>
