<svg width="24" height="24" viewBox="0 0 24 24" fill="none" xmlns="http://www.w3.org/2000/svg">
<g id="Icon/Reset_password">
<g id="Group">
<path id="Vector" d="M14.6659 10H13.9993V8.66669C13.9993 7.19601 12.8032 6 11.3326 6C9.86188 6 8.66587 7.19601 8.66587 8.66669V10H7.99919C7.63119 10 7.33252 10.2987 7.33252 10.6667V16.0001C7.33252 16.3681 7.63119 16.6668 7.99919 16.6668H14.6659C15.0339 16.6668 15.3326 16.3681 15.3326 16.0001V10.6667C15.3326 10.2987 15.0339 10 14.6659 10ZM9.99921 8.66669C9.99921 7.93202 10.5966 7.33335 11.3326 7.33335C12.0686 7.33335 12.6659 7.93202 12.6659 8.66669V10H9.99921V8.66669ZM13.9993 15.3334H8.66587V11.3334H13.9993V15.3334Z" fill="#6C737F"/>
<path id="Vector_2" d="M22.2487 8.04806C21.9061 7.91072 21.5181 8.07739 21.3834 8.42006L20.9847 9.4174C19.8394 5.15203 15.9527 2 11.3326 2C5.8179 2 1.33252 6.48538 1.33252 12.0001C1.33252 17.5148 5.8179 22.0002 11.3326 22.0002C14.0033 22.0002 16.514 20.9602 18.4047 19.0708C18.6647 18.8108 18.6647 18.3882 18.4047 18.1282C18.1447 17.8682 17.722 17.8682 17.462 18.1282C15.8233 19.7655 13.646 20.6668 11.3326 20.6668C6.5539 20.6668 2.66587 16.7788 2.66587 12.0001C2.66587 7.22138 6.5539 3.33335 11.3326 3.33335C15.494 3.33335 18.978 6.28271 19.8087 10.2001L18.4714 8.8614C18.2114 8.6014 17.7887 8.6014 17.5287 8.8614C17.2687 9.1214 17.2687 9.54407 17.5287 9.80408L20.1954 12.4708C20.21 12.4854 20.23 12.4908 20.246 12.5041C20.2967 12.5468 20.3487 12.5881 20.41 12.6134C20.49 12.6494 20.578 12.6668 20.666 12.6668C20.71 12.6668 20.7554 12.6628 20.8007 12.6534C20.8194 12.6494 20.8327 12.6348 20.85 12.6294C20.918 12.6094 20.9794 12.5788 21.0367 12.5401C21.062 12.5228 21.0874 12.5108 21.11 12.4908C21.1834 12.4241 21.2447 12.3454 21.2834 12.2521C21.2834 12.2508 21.2847 12.2494 21.286 12.2481L22.6194 8.91473C22.7567 8.5734 22.5914 8.18539 22.2487 8.04806Z" fill="#6C737F"/>
</g>
</g>
</svg>
