<svg width="24" height="24" viewBox="0 0 24 24" fill="none" xmlns="http://www.w3.org/2000/svg">
<g id="Icon/Outlined/Reset">
<g id="Vector">
<path d="M12 3.75C16.5563 3.75 20.25 7.44366 20.25 12C20.25 16.5563 16.5563 20.25 12 20.25C9.7216 20.25 7.66013 19.3274 6.16639 17.8336C5.8735 17.5407 5.39863 17.5407 5.10573 17.8336C4.81283 18.1265 4.81282 18.6014 5.10571 18.8943C6.86927 20.6579 9.3078 21.75 12 21.75C17.3848 21.75 21.75 17.3848 21.75 12C21.75 6.61524 17.3848 2.25 12 2.25C9.30781 2.25 6.86928 3.34212 5.10572 5.10572M5.10572 5.10572C4.67634 5.5351 4.00551 6.26432 3.4516 6.87504C3.17253 7.18275 2.91961 7.46428 2.73648 7.66887C2.64489 7.77119 2.5707 7.85433 2.51934 7.91195L2.43958 8.00158L3.56081 8.99799L3.63919 8.90993C3.6899 8.85303 3.76335 8.77071 3.85413 8.6693C4.03573 8.46643 4.28638 8.18742 4.56269 7.88276C5.11956 7.26876 5.76676 6.566 6.16638 6.16638C7.66012 4.6726 9.7216 3.75 12 3.75M2.502 9.0608C2.81173 9.33584 3.28577 9.30771 3.56081 8.99799L2.43958 8.00158C2.16454 8.3113 2.19228 8.78577 2.502 9.0608Z" fill="#6C737F"/>
<path d="M3 3.25C2.58579 3.25 2.25 3.58579 2.25 4V8.5C2.25 8.91421 2.58579 9.25 3 9.25H7.5C7.91421 9.25 8.25 8.91421 8.25 8.5C8.25 8.08579 7.91421 7.75 7.5 7.75H3.75V4C3.75 3.58579 3.41421 3.25 3 3.25Z" fill="#6C737F"/>
</g>
</g>
</svg>
