<svg width="24" height="24" viewBox="0 0 24 24" fill="none" xmlns="http://www.w3.org/2000/svg">
<g id="Icon/Save">
<g id="Vector">
<path fill-rule="evenodd" clip-rule="evenodd" d="M4.5 3.75C4.08579 3.75 3.75 4.08579 3.75 4.5V19.5C3.75 19.9142 4.08578 20.25 4.5 20.25H19.5C19.9142 20.25 20.25 19.9142 20.25 19.5V6.92909L16.845 3.75H4.5ZM2.25 4.5C2.25 3.25736 3.25736 2.25 4.5 2.25H17.1407C17.3307 2.25 17.5136 2.32212 17.6525 2.4518L21.5118 6.05505C21.6638 6.19689 21.75 6.39541 21.75 6.60325V19.5C21.75 20.7427 20.7427 21.75 19.5 21.75H4.5C3.25737 21.75 2.25 20.7427 2.25 19.5V4.5Z" fill="#6C737F"/>
<path fill-rule="evenodd" clip-rule="evenodd" d="M6.25 3C6.25 2.58579 6.58579 2.25 7 2.25H12.0042C12.2032 2.25 12.3941 2.32913 12.5348 2.46997C12.6755 2.6108 12.7544 2.80178 12.7542 3.00084L12.75 6.6923C12.7496 7.13434 12.4611 7.41662 12.2466 7.54862C12.0199 7.68816 11.754 7.75 11.5 7.75H7.5C7.24599 7.75 6.98012 7.68816 6.75337 7.54862C6.53873 7.41654 6.25 7.13483 6.25 6.6923V3ZM7.75 3.75V6.25H11.2505L11.2533 3.75H7.75Z" fill="#6C737F"/>
<path fill-rule="evenodd" clip-rule="evenodd" d="M3.75 3C3.75 2.58579 4.08579 2.25 4.5 2.25H17.1407C17.5549 2.25 17.8907 2.58579 17.8907 3C17.8907 3.41421 17.5549 3.75 17.1407 3.75H4.5C4.08579 3.75 3.75 3.41421 3.75 3Z" fill="#6C737F"/>
<path fill-rule="evenodd" clip-rule="evenodd" d="M6.25 13C6.25 12.5858 6.58579 12.25 7 12.25H17C17.4142 12.25 17.75 12.5858 17.75 13C17.75 13.4142 17.4142 13.75 17 13.75H7C6.58579 13.75 6.25 13.4142 6.25 13Z" fill="#6C737F"/>
<path fill-rule="evenodd" clip-rule="evenodd" d="M6.25 17C6.25 16.5858 6.58579 16.25 7 16.25H12.0042C12.4184 16.25 12.7542 16.5858 12.7542 17C12.7542 17.4142 12.4184 17.75 12.0042 17.75H7C6.58579 17.75 6.25 17.4142 6.25 17Z" fill="#6C737F"/>
</g>
</g>
</svg>
