<svg width="17" height="16" viewBox="0 0 17 16" fill="none" xmlns="http://www.w3.org/2000/svg">
<g id="Icon/Outlined/Search">
<g id="Vector">
<path d="M1.32812 6.99967C1.32812 3.59393 4.08905 0.833008 7.49479 0.833008C10.9005 0.833008 13.6615 3.59393 13.6615 6.99967C13.6615 10.4054 10.9005 13.1663 7.49479 13.1663C4.08905 13.1663 1.32812 10.4054 1.32812 6.99967ZM7.49479 1.83301C4.64133 1.83301 2.32812 4.14622 2.32812 6.99967C2.32812 9.85313 4.64133 12.1663 7.49479 12.1663C10.3482 12.1663 12.6615 9.85313 12.6615 6.99967C12.6615 4.14622 10.3482 1.83301 7.49479 1.83301Z" fill="#6C737F"/>
<path d="M5.25562 4.42714C5.82815 3.85465 6.62049 3.49967 7.49479 3.49967C8.36909 3.49967 9.16144 3.85465 9.73395 4.42715C9.92921 4.62242 9.92921 4.939 9.73395 5.13426C9.53868 5.32952 9.2221 5.32952 9.02684 5.13426C8.63421 4.74163 8.09323 4.49967 7.49479 4.49967C6.89636 4.49967 6.35537 4.74163 5.9627 5.13427C5.76743 5.32953 5.45085 5.32952 5.25559 5.13425C5.06034 4.93898 5.06035 4.6224 5.25562 4.42714Z" fill="#6C737F"/>
<path d="M11.2152 10.7201C11.4104 10.5248 11.727 10.5248 11.9223 10.7201L14.7507 13.5485C14.946 13.7437 14.946 14.0603 14.7507 14.2556C14.5555 14.4509 14.2389 14.4509 14.0436 14.2556L11.2152 11.4272C11.0199 11.2319 11.0199 10.9153 11.2152 10.7201Z" fill="#6C737F"/>
</g>
</g>
</svg>
