<svg width="24" height="24" viewBox="0 0 24 24" fill="none" xmlns="http://www.w3.org/2000/svg">
<path d="M12.0002 16.6508C15.8533 16.6508 18.9769 13.5272 18.9769 9.67401C18.9769 5.82085 15.8533 2.69727 12.0002 2.69727C8.14702 2.69727 5.02344 5.82085 5.02344 9.67401C5.02344 13.5272 8.14702 16.6508 12.0002 16.6508Z" fill="#2E90FA"/>
<path fill-rule="evenodd" clip-rule="evenodd" d="M4.32568 9.67442C4.32568 5.43594 7.76162 2 12.0001 2C16.2386 2 19.6745 5.43594 19.6745 9.67442C19.6745 13.9129 16.2386 17.3488 12.0001 17.3488C7.76162 17.3488 4.32568 13.9129 4.32568 9.67442ZM12.0001 3.39535C8.53225 3.39535 5.72103 6.20657 5.72103 9.67442C5.72103 13.1423 8.53225 15.9535 12.0001 15.9535C15.4679 15.9535 18.2792 13.1423 18.2792 9.67442C18.2792 6.20657 15.4679 3.39535 12.0001 3.39535Z" fill="#2E90FA"/>
<path d="M12.0002 12.4652C13.5414 12.4652 14.7909 11.2157 14.7909 9.67449C14.7909 8.13323 13.5414 6.88379 12.0002 6.88379C10.4589 6.88379 9.20947 8.13323 9.20947 9.67449C9.20947 11.2157 10.4589 12.4652 12.0002 12.4652Z" fill="#FFFBFF"/>
<path fill-rule="evenodd" clip-rule="evenodd" d="M8.51172 9.6749C8.51172 7.74832 10.0735 6.18652 12.0001 6.18652C13.9267 6.18652 15.4885 7.74832 15.4885 9.6749C15.4885 11.6015 13.9267 13.1633 12.0001 13.1633C10.0735 13.1633 8.51172 11.6015 8.51172 9.6749ZM12.0001 7.58187C10.8442 7.58187 9.90707 8.51895 9.90707 9.6749C9.90707 10.8308 10.8442 11.7679 12.0001 11.7679C13.156 11.7679 14.0931 10.8308 14.0931 9.6749C14.0931 8.51895 13.156 7.58187 12.0001 7.58187Z" fill="#B2DDFF"/>
<path fill-rule="evenodd" clip-rule="evenodd" d="M9.18484 16.4281C9.28045 16.1443 9.54653 15.9531 9.84601 15.9531H14.1414C14.4403 15.9531 14.7059 16.1435 14.802 16.4264L16.3817 21.0776C16.454 21.2906 16.4192 21.5254 16.2882 21.7083C16.1572 21.8912 15.946 21.9996 15.7211 21.9996H8.27922C8.05457 21.9996 7.84366 21.8915 7.71259 21.709C7.58153 21.5265 7.54634 21.2921 7.61805 21.0792L9.18484 16.4281ZM10.3472 17.3485L9.25044 20.6043H14.7473L13.6415 17.3485H10.3472Z" fill="#2E90FA"/>
<path fill-rule="evenodd" clip-rule="evenodd" d="M5.72119 21.3022C5.72119 20.9169 6.03355 20.6045 6.41887 20.6045H17.5817C17.967 20.6045 18.2793 20.9169 18.2793 21.3022C18.2793 21.6875 17.967 21.9998 17.5817 21.9998H6.41887C6.03355 21.9998 5.72119 21.6875 5.72119 21.3022Z" fill="#2E90FA"/>
</svg>
