<svg width="24" height="24" viewBox="0 0 24 24" fill="none" xmlns="http://www.w3.org/2000/svg">
<g id="Active=No">
<g id="Vector">
<path fill-rule="evenodd" clip-rule="evenodd" d="M4 9.67442C4 5.43594 7.58171 2 12 2C16.4183 2 20 5.43594 20 9.67442C20 13.9129 16.4183 17.3488 12 17.3488C7.58171 17.3488 4 13.9129 4 9.67442ZM12 3.39535C8.38503 3.39535 5.45455 6.20657 5.45455 9.67442C5.45455 13.1423 8.38503 15.9535 12 15.9535C15.615 15.9535 18.5455 13.1423 18.5455 9.67442C18.5455 6.20657 15.615 3.39535 12 3.39535Z" fill="#6C737F"/>
<path fill-rule="evenodd" clip-rule="evenodd" d="M8.36364 9.67442C8.36364 7.74785 9.9917 6.18605 12 6.18605C14.0083 6.18605 15.6364 7.74785 15.6364 9.67442C15.6364 11.601 14.0083 13.1628 12 13.1628C9.9917 13.1628 8.36364 11.601 8.36364 9.67442ZM12 7.5814C10.795 7.5814 9.81818 8.51848 9.81818 9.67442C9.81818 10.8304 10.795 11.7674 12 11.7674C13.205 11.7674 14.1818 10.8304 14.1818 9.67442C14.1818 8.51848 13.205 7.5814 12 7.5814Z" fill="#6C737F"/>
<path fill-rule="evenodd" clip-rule="evenodd" d="M9.06526 16.4284C9.16492 16.1446 9.44229 15.9535 9.75448 15.9535H14.2321C14.5436 15.9535 14.8206 16.1438 14.9207 16.4268L16.5674 21.078C16.6428 21.291 16.6066 21.5258 16.47 21.7087C16.3334 21.8915 16.1133 22 15.8788 22H8.12122C7.88703 22 7.66718 21.8918 7.53055 21.7094C7.39392 21.5269 7.35724 21.2925 7.432 21.0796L9.06526 16.4284ZM10.2769 17.3488L9.13363 20.6047H14.8637L13.711 17.3488H10.2769Z" fill="#6C737F"/>
<path fill-rule="evenodd" clip-rule="evenodd" d="M5.45455 21.3023C5.45455 20.917 5.78016 20.6047 6.18182 20.6047H17.8182C18.2198 20.6047 18.5455 20.917 18.5455 21.3023C18.5455 21.6876 18.2198 22 17.8182 22H6.18182C5.78016 22 5.45455 21.6876 5.45455 21.3023Z" fill="#6C737F"/>
</g>
</g>
</svg>
