<svg width="24" height="24" viewBox="0 0 24 24" fill="none" xmlns="http://www.w3.org/2000/svg">
<g id="Active=No">
<g id="Group">
<path id="Vector" d="M9.19901 22.0006C9.03494 22.0006 8.87567 21.9363 8.75739 21.8173C8.6821 21.7421 8.62728 21.6488 8.59812 21.5464C8.56897 21.4441 8.56644 21.3359 8.59078 21.2323L9.49913 17.3779C9.52547 17.2648 9.58324 17.1614 9.66578 17.0796L17.6211 9.12437C18.3285 8.41602 19.5645 8.41513 20.2728 9.12437L21.4511 10.3027C21.8053 10.6561 22.0003 11.1277 22.0003 11.6278C22.0003 12.1286 21.8053 12.6002 21.4511 12.9536L13.4959 20.908C13.4138 20.9902 13.3105 21.0479 13.1975 21.0747L9.34319 21.983C9.29607 21.995 9.24762 22.0009 9.19901 22.0006ZM10.6749 17.8371L10.039 20.5355L12.7375 19.8997L20.567 12.0703C20.6853 11.9519 20.7503 11.7953 20.7503 11.6285C20.7503 11.4619 20.6853 11.3044 20.567 11.1869L19.3886 10.0085C19.1444 9.76521 18.7486 9.76431 18.5044 10.0085L10.6749 17.8371Z" fill="#6C737F"/>
<path id="Vector_2" d="M18.9468 15.1996C18.8647 15.1998 18.7834 15.1837 18.7076 15.1522C18.6317 15.1208 18.5629 15.0746 18.505 15.0163L15.5583 12.0695C15.3142 11.8253 15.3142 11.4295 15.5583 11.1853C15.8025 10.9412 16.1983 10.9412 16.4425 11.1853L19.3893 14.1321C19.6335 14.3762 19.6335 14.772 19.3893 15.0163C19.3313 15.0745 19.2623 15.1207 19.1863 15.1521C19.1104 15.1836 19.029 15.1997 18.9468 15.1996ZM7.69978 19.5006H3.87458C2.84028 19.5006 1.99951 18.6598 1.99951 17.6255V3.87506C1.99951 2.84077 2.84028 2 3.87458 2H15.9583C16.9926 2 17.8333 2.84077 17.8333 3.87506V7.73351C17.8333 8.07853 17.5533 8.35854 17.2083 8.35854C16.8633 8.35854 16.5833 8.07853 16.5833 7.73351V3.87506C16.5833 3.53005 16.3033 3.25004 15.9583 3.25004H3.87458C3.52956 3.25004 3.24955 3.53005 3.24955 3.87506V17.6255C3.24955 17.9705 3.52956 18.2505 3.87458 18.2505H7.69978C8.04479 18.2505 8.3248 18.5306 8.3248 18.8756C8.3248 19.2206 8.04479 19.5006 7.69978 19.5006Z" fill="#6C737F"/>
<path id="Vector_3" d="M17.2083 7.41703H2.62453C2.27952 7.41703 1.99951 7.13702 1.99951 6.79201C1.99951 6.447 2.27952 6.16699 2.62453 6.16699H17.2083C17.5533 6.16699 17.8333 6.447 17.8333 6.79201C17.8333 7.13702 17.5533 7.41703 17.2083 7.41703ZM14.1416 11.5837H2.62453C2.27952 11.5837 1.99951 11.3037 1.99951 10.9587C1.99951 10.6137 2.27952 10.3337 2.62453 10.3337H14.1416C14.4867 10.3337 14.7667 10.6137 14.7667 10.9587C14.7667 11.3037 14.4867 11.5837 14.1416 11.5837ZM9.9165 15.7506H2.62453C2.27952 15.7506 1.99951 15.4706 1.99951 15.1256C1.99951 14.7806 2.27952 14.5006 2.62453 14.5006H9.9165C10.2615 14.5006 10.5415 14.7806 10.5415 15.1256C10.5415 15.4706 10.2615 15.7506 9.9165 15.7506Z" fill="#6C737F"/>
<path id="Vector_4" d="M9.91653 15.7506C9.57151 15.7506 9.2915 15.4706 9.2915 15.1256V6.79201C9.2915 6.447 9.57151 6.16699 9.91653 6.16699C10.2615 6.16699 10.5415 6.447 10.5415 6.79201V15.1256C10.5415 15.4706 10.2615 15.7506 9.91653 15.7506Z" fill="#6C737F"/>
</g>
</g>
</svg>
