<svg width="24" height="24" viewBox="0 0 24 24" fill="none" xmlns="http://www.w3.org/2000/svg">
<g clip-path="url(#clip0_640_28410)">
<path d="M6.857 2C6.5163 2.00093 6.18983 2.13292 5.94892 2.36714C5.70801 2.60136 5.57224 2.91876 5.57129 3.25V20.75C5.57224 21.0812 5.70801 21.3986 5.94892 21.6329C6.18983 21.8671 6.5163 21.9991 6.857 22H19.7141C20.0548 21.9991 20.3813 21.8671 20.6222 21.6329C20.8631 21.3986 20.9989 21.0812 20.9999 20.75V7L15.857 2H6.857Z" fill="#D1E9FF"/>
<path d="M17.1426 7H20.9998L15.8569 2V5.75C15.8579 6.08124 15.9937 6.39864 16.2346 6.63286C16.4755 6.86708 16.8019 6.99907 17.1426 7Z" fill="#84CAFF"/>
<path d="M21.0002 10.75L17.1431 7H21.0002V10.75Z" fill="#B2DDFF"/>
<path d="M18.4286 18.25C18.4286 18.4158 18.3608 18.5747 18.2403 18.6919C18.1197 18.8092 17.9562 18.875 17.7857 18.875H3.64286C3.47236 18.875 3.30885 18.8092 3.18829 18.6919C3.06773 18.5747 3 18.4158 3 18.25V12C3 11.8342 3.06773 11.6753 3.18829 11.5581C3.30885 11.4408 3.47236 11.375 3.64286 11.375H17.7857C17.9562 11.375 18.1197 11.4408 18.2403 11.5581C18.3608 11.6753 18.4286 11.8342 18.4286 12V18.25Z" fill="#2E90FA"/>
<path d="M7.04934 14.1665H6.15015C5.70256 14.1665 5.70256 13.5271 6.15015 13.5271H8.58135C9.03898 13.5271 9.03898 14.1665 8.58135 14.1665H7.72756V16.6896C7.72756 17.1239 7.04894 17.1349 7.04894 16.6896V14.1665H7.04934ZM10.7313 14.7411L11.6261 13.6517C11.8933 13.3122 12.4124 13.7466 12.1199 14.0716C11.8113 14.4267 11.4879 14.8114 11.1785 15.2044L12.2276 16.4739C12.5088 16.8489 11.9463 17.2091 11.6651 16.8388L10.7197 15.6595L9.79032 16.8646C9.52836 17.229 8.94657 16.8196 9.24068 16.4798L10.2725 15.2052C9.95104 14.8111 9.63523 14.4267 9.32184 14.0724C8.9976 13.6974 9.59948 13.313 9.83532 13.663L10.7297 14.7419L10.7313 14.7411ZM13.6993 14.1665H12.8005C12.3529 14.1665 12.3529 13.5271 12.8005 13.5271H15.2313C15.6889 13.5271 15.6889 14.1665 15.2313 14.1665H14.3779V16.6896C14.3779 17.1239 13.6993 17.1349 13.6993 16.6896V14.1665Z" fill="white"/>
<path d="M17.7856 18.875H5.57129V19.5H17.7856C17.9561 19.5 18.1196 19.4342 18.2401 19.3169C18.3607 19.1997 18.4284 19.0408 18.4284 18.875V18.25C18.4284 18.4158 18.3607 18.5747 18.2401 18.6919C18.1196 18.8092 17.9561 18.875 17.7856 18.875Z" fill="#B2DDFF"/>
</g>
<defs>
<clipPath id="clip0_640_28410">
<rect width="18" height="20" fill="white" transform="translate(3 2)"/>
</clipPath>
</defs>
</svg>
