<svg width="25" height="24" viewBox="0 0 25 24" fill="none" xmlns="http://www.w3.org/2000/svg">
<g id="Icon/Outlined/View-grid-list">
<g id="Vector">
<path fill-rule="evenodd" clip-rule="evenodd" d="M4.50635 3.75C4.09213 3.75 3.75635 4.08579 3.75635 4.5V19.5C3.75635 19.9142 4.09213 20.25 4.50635 20.25H19.5063C19.9206 20.25 20.2563 19.9142 20.2563 19.5V4.5C20.2563 4.08579 19.9206 3.75 19.5063 3.75H4.50635ZM2.25635 4.5C2.25635 3.25736 3.26371 2.25 4.50635 2.25H19.5063C20.749 2.25 21.7563 3.25736 21.7563 4.5V19.5C21.7563 20.7426 20.749 21.75 19.5063 21.75H4.50635C3.26371 21.75 2.25635 20.7426 2.25635 19.5V4.5Z" fill="#6C737F"/>
<path fill-rule="evenodd" clip-rule="evenodd" d="M5.75635 6.5C5.75635 6.08579 6.09213 5.75 6.50635 5.75H10.5063C10.9206 5.75 11.2563 6.08579 11.2563 6.5V10.5C11.2563 10.9142 10.9206 11.25 10.5063 11.25H6.50635C6.09213 11.25 5.75635 10.9142 5.75635 10.5V6.5ZM7.25635 7.25V9.75H9.75635V7.25H7.25635Z" fill="#6C737F"/>
<path fill-rule="evenodd" clip-rule="evenodd" d="M5.75635 13.5C5.75635 13.0858 6.09213 12.75 6.50635 12.75H10.5063C10.9206 12.75 11.2563 13.0858 11.2563 13.5V17.5C11.2563 17.9142 10.9206 18.25 10.5063 18.25H6.50635C6.09213 18.25 5.75635 17.9142 5.75635 17.5V13.5ZM7.25635 14.25V16.75H9.75635V14.25H7.25635Z" fill="#6C737F"/>
<path fill-rule="evenodd" clip-rule="evenodd" d="M12.7563 14C12.7563 13.5858 13.0921 13.25 13.5063 13.25H17.5063C17.9206 13.25 18.2563 13.5858 18.2563 14C18.2563 14.4142 17.9206 14.75 17.5063 14.75H13.5063C13.0921 14.75 12.7563 14.4142 12.7563 14Z" fill="#6C737F"/>
<path fill-rule="evenodd" clip-rule="evenodd" d="M12.7563 17.5C12.7563 17.0858 13.0921 16.75 13.5063 16.75H17.5063C17.9206 16.75 18.2563 17.0858 18.2563 17.5C18.2563 17.9142 17.9206 18.25 17.5063 18.25H13.5063C13.0921 18.25 12.7563 17.9142 12.7563 17.5Z" fill="#6C737F"/>
<path fill-rule="evenodd" clip-rule="evenodd" d="M12.7563 6.5C12.7563 6.08579 13.0921 5.75 13.5063 5.75H17.5063C17.9206 5.75 18.2563 6.08579 18.2563 6.5C18.2563 6.91421 17.9206 7.25 17.5063 7.25H13.5063C13.0921 7.25 12.7563 6.91421 12.7563 6.5Z" fill="#6C737F"/>
<path fill-rule="evenodd" clip-rule="evenodd" d="M12.7563 10C12.7563 9.58579 13.0921 9.25 13.5063 9.25H17.5063C17.9206 9.25 18.2563 9.58579 18.2563 10C18.2563 10.4142 17.9206 10.75 17.5063 10.75H13.5063C13.0921 10.75 12.7563 10.4142 12.7563 10Z" fill="#6C737F"/>
</g>
</g>
</svg>
