<svg width="24" height="24" viewBox="0 0 24 24" fill="none" xmlns="http://www.w3.org/2000/svg">
<path d="M11.2417 4.44566C14.4726 3.91981 17.7699 3.46012 21.0013 3V11.5404C17.7699 11.5404 14.4726 11.6061 11.2417 11.6061V4.44566Z" fill="#6C737F"/>
<path d="M2.99854 5.56171C5.44036 5.16733 7.87833 4.83867 10.3844 4.57617V11.606C7.87833 11.606 5.43865 11.6717 2.99854 11.6717V5.56171Z" fill="#6C737F"/>
<path d="M2.99854 12.3945C5.44036 12.3945 7.87833 12.4603 10.3844 12.3945V19.4901C7.87833 19.1619 5.43865 18.8332 2.99854 18.5045V12.3945Z" fill="#6C737F"/>
<path d="M11.2417 12.4609H21.0013V21.0022C17.7699 20.4763 14.4726 20.0824 11.2417 19.6222V12.4609Z" fill="#6C737F"/>
</svg>
